<mxfile host="Electron" modified="2023-07-05T07:28:18.507Z" agent="Mozilla/5.0 (Windows NT 10.0; Win64; x64) AppleWebKit/537.36 (KHTML, like Gecko) draw.io/21.5.0 Chrome/112.0.5615.204 Electron/24.5.1 Safari/537.36" etag="77yi8hZZ6e9quyq8GNwe" version="21.5.0" type="device">
  <diagram name="第 1 页" id="ESRKPKzT2KG-xwUZWP0j">
    <mxGraphModel dx="3236" dy="2040" grid="0" gridSize="10" guides="1" tooltips="1" connect="1" arrows="1" fold="1" page="0" pageScale="1" pageWidth="827" pageHeight="1169" math="0" shadow="0">
      <root>
        <mxCell id="0" />
        <mxCell id="1" parent="0" />
        <mxCell id="jT8ozwWT_lObpIZQCRuP-11" style="rounded=0;orthogonalLoop=1;jettySize=auto;html=1;exitX=0;exitY=1;exitDx=0;exitDy=0;entryX=1;entryY=0;entryDx=0;entryDy=0;" parent="1" source="jT8ozwWT_lObpIZQCRuP-1" target="jT8ozwWT_lObpIZQCRuP-4" edge="1">
          <mxGeometry relative="1" as="geometry" />
        </mxCell>
        <mxCell id="jT8ozwWT_lObpIZQCRuP-12" style="edgeStyle=none;rounded=0;orthogonalLoop=1;jettySize=auto;html=1;exitX=1;exitY=1;exitDx=0;exitDy=0;" parent="1" source="jT8ozwWT_lObpIZQCRuP-1" target="jT8ozwWT_lObpIZQCRuP-3" edge="1">
          <mxGeometry relative="1" as="geometry" />
        </mxCell>
        <mxCell id="jT8ozwWT_lObpIZQCRuP-1" value="70" style="ellipse;whiteSpace=wrap;html=1;aspect=fixed;" parent="1" vertex="1">
          <mxGeometry x="161" y="-7" width="47" height="47" as="geometry" />
        </mxCell>
        <mxCell id="jT8ozwWT_lObpIZQCRuP-15" style="edgeStyle=none;rounded=0;orthogonalLoop=1;jettySize=auto;html=1;exitX=0;exitY=1;exitDx=0;exitDy=0;entryX=1;entryY=0;entryDx=0;entryDy=0;" parent="1" source="jT8ozwWT_lObpIZQCRuP-3" target="jT8ozwWT_lObpIZQCRuP-10" edge="1">
          <mxGeometry relative="1" as="geometry" />
        </mxCell>
        <mxCell id="WlHi6fPlka2EF-HQjQjL-19" style="rounded=0;orthogonalLoop=1;jettySize=auto;html=1;exitX=1;exitY=1;exitDx=0;exitDy=0;entryX=0;entryY=0;entryDx=0;entryDy=0;" edge="1" parent="1" source="jT8ozwWT_lObpIZQCRuP-3" target="jT8ozwWT_lObpIZQCRuP-52">
          <mxGeometry relative="1" as="geometry" />
        </mxCell>
        <mxCell id="jT8ozwWT_lObpIZQCRuP-3" value="65" style="ellipse;whiteSpace=wrap;html=1;aspect=fixed;" parent="1" vertex="1">
          <mxGeometry x="236" y="66" width="47" height="47" as="geometry" />
        </mxCell>
        <mxCell id="jT8ozwWT_lObpIZQCRuP-13" style="edgeStyle=none;rounded=0;orthogonalLoop=1;jettySize=auto;html=1;exitX=0;exitY=1;exitDx=0;exitDy=0;entryX=1;entryY=0;entryDx=0;entryDy=0;" parent="1" source="jT8ozwWT_lObpIZQCRuP-4" target="jT8ozwWT_lObpIZQCRuP-5" edge="1">
          <mxGeometry relative="1" as="geometry" />
        </mxCell>
        <mxCell id="jT8ozwWT_lObpIZQCRuP-14" style="edgeStyle=none;rounded=0;orthogonalLoop=1;jettySize=auto;html=1;exitX=1;exitY=1;exitDx=0;exitDy=0;entryX=0;entryY=0;entryDx=0;entryDy=0;" parent="1" source="jT8ozwWT_lObpIZQCRuP-4" target="jT8ozwWT_lObpIZQCRuP-9" edge="1">
          <mxGeometry relative="1" as="geometry" />
        </mxCell>
        <mxCell id="jT8ozwWT_lObpIZQCRuP-4" value="50" style="ellipse;whiteSpace=wrap;html=1;aspect=fixed;" parent="1" vertex="1">
          <mxGeometry x="84" y="66" width="47" height="47" as="geometry" />
        </mxCell>
        <mxCell id="jT8ozwWT_lObpIZQCRuP-5" value="30" style="ellipse;whiteSpace=wrap;html=1;aspect=fixed;" parent="1" vertex="1">
          <mxGeometry x="26" y="151" width="47" height="47" as="geometry" />
        </mxCell>
        <mxCell id="jT8ozwWT_lObpIZQCRuP-9" value="20" style="ellipse;whiteSpace=wrap;html=1;aspect=fixed;" parent="1" vertex="1">
          <mxGeometry x="128" y="153" width="47" height="47" as="geometry" />
        </mxCell>
        <mxCell id="jT8ozwWT_lObpIZQCRuP-10" value="40" style="ellipse;whiteSpace=wrap;html=1;aspect=fixed;" parent="1" vertex="1">
          <mxGeometry x="195" y="153" width="47" height="47" as="geometry" />
        </mxCell>
        <mxCell id="jT8ozwWT_lObpIZQCRuP-25" value="70" style="rounded=0;whiteSpace=wrap;html=1;fillColor=#fff2cc;strokeColor=#d6b656;" parent="1" vertex="1">
          <mxGeometry x="447" y="60.000000000000114" width="80" height="62" as="geometry" />
        </mxCell>
        <mxCell id="jT8ozwWT_lObpIZQCRuP-26" value="50" style="rounded=0;whiteSpace=wrap;html=1;fillColor=#fff2cc;strokeColor=#d6b656;" parent="1" vertex="1">
          <mxGeometry x="527" y="60.000000000000114" width="80" height="62" as="geometry" />
        </mxCell>
        <mxCell id="jT8ozwWT_lObpIZQCRuP-27" value="65" style="rounded=0;whiteSpace=wrap;html=1;fillColor=#fff2cc;strokeColor=#d6b656;" parent="1" vertex="1">
          <mxGeometry x="607" y="60.000000000000114" width="80" height="62" as="geometry" />
        </mxCell>
        <mxCell id="jT8ozwWT_lObpIZQCRuP-28" value="30" style="rounded=0;whiteSpace=wrap;html=1;fillColor=#fff2cc;strokeColor=#d6b656;" parent="1" vertex="1">
          <mxGeometry x="687" y="60.000000000000114" width="80" height="62" as="geometry" />
        </mxCell>
        <mxCell id="jT8ozwWT_lObpIZQCRuP-29" value="20" style="rounded=0;whiteSpace=wrap;html=1;fillColor=#fff2cc;strokeColor=#d6b656;" parent="1" vertex="1">
          <mxGeometry x="767" y="60.000000000000114" width="80" height="62" as="geometry" />
        </mxCell>
        <mxCell id="jT8ozwWT_lObpIZQCRuP-48" value="40" style="rounded=0;whiteSpace=wrap;html=1;fillColor=#fff2cc;strokeColor=#d6b656;" parent="1" vertex="1">
          <mxGeometry x="847" y="60.000000000000114" width="80" height="62" as="geometry" />
        </mxCell>
        <mxCell id="jT8ozwWT_lObpIZQCRuP-49" value="" style="endArrow=classic;html=1;rounded=0;" parent="1" edge="1">
          <mxGeometry width="50" height="50" relative="1" as="geometry">
            <mxPoint x="929" y="190" as="sourcePoint" />
            <mxPoint x="929" y="130" as="targetPoint" />
          </mxGeometry>
        </mxCell>
        <mxCell id="jT8ozwWT_lObpIZQCRuP-50" value="a" style="text;html=1;align=center;verticalAlign=middle;resizable=0;points=[];autosize=1;strokeColor=none;fillColor=none;" parent="1" vertex="1">
          <mxGeometry x="927" y="146" width="25" height="26" as="geometry" />
        </mxCell>
        <mxCell id="jT8ozwWT_lObpIZQCRuP-52" value="100" style="ellipse;whiteSpace=wrap;html=1;aspect=fixed;fillColor=#f8cecc;strokeColor=#b85450;" parent="1" vertex="1">
          <mxGeometry x="292" y="153" width="47" height="47" as="geometry" />
        </mxCell>
        <mxCell id="jT8ozwWT_lObpIZQCRuP-54" value="100" style="rounded=0;whiteSpace=wrap;html=1;fillColor=#fff2cc;strokeColor=#d6b656;" parent="1" vertex="1">
          <mxGeometry x="927" y="60.000000000000114" width="80" height="62" as="geometry" />
        </mxCell>
        <mxCell id="jT8ozwWT_lObpIZQCRuP-56" value="" style="shape=flexArrow;endArrow=classic;html=1;rounded=0;fillColor=#e1d5e7;strokeColor=#9673a6;" parent="1" edge="1">
          <mxGeometry width="50" height="50" relative="1" as="geometry">
            <mxPoint x="183.91" y="246" as="sourcePoint" />
            <mxPoint x="183.91" y="322" as="targetPoint" />
          </mxGeometry>
        </mxCell>
        <mxCell id="jT8ozwWT_lObpIZQCRuP-57" style="rounded=0;orthogonalLoop=1;jettySize=auto;html=1;exitX=0;exitY=1;exitDx=0;exitDy=0;entryX=1;entryY=0;entryDx=0;entryDy=0;" parent="1" source="jT8ozwWT_lObpIZQCRuP-59" target="jT8ozwWT_lObpIZQCRuP-64" edge="1">
          <mxGeometry relative="1" as="geometry" />
        </mxCell>
        <mxCell id="jT8ozwWT_lObpIZQCRuP-58" style="edgeStyle=none;rounded=0;orthogonalLoop=1;jettySize=auto;html=1;exitX=1;exitY=1;exitDx=0;exitDy=0;" parent="1" source="jT8ozwWT_lObpIZQCRuP-59" target="jT8ozwWT_lObpIZQCRuP-61" edge="1">
          <mxGeometry relative="1" as="geometry" />
        </mxCell>
        <mxCell id="jT8ozwWT_lObpIZQCRuP-59" value="70" style="ellipse;whiteSpace=wrap;html=1;aspect=fixed;fillColor=#FFFFFF;strokeColor=#000000;" parent="1" vertex="1">
          <mxGeometry x="163" y="356" width="47" height="47" as="geometry" />
        </mxCell>
        <mxCell id="jT8ozwWT_lObpIZQCRuP-60" style="edgeStyle=none;rounded=0;orthogonalLoop=1;jettySize=auto;html=1;exitX=0;exitY=1;exitDx=0;exitDy=0;entryX=1;entryY=0;entryDx=0;entryDy=0;" parent="1" source="jT8ozwWT_lObpIZQCRuP-61" target="jT8ozwWT_lObpIZQCRuP-67" edge="1">
          <mxGeometry relative="1" as="geometry" />
        </mxCell>
        <mxCell id="WlHi6fPlka2EF-HQjQjL-20" style="rounded=0;orthogonalLoop=1;jettySize=auto;html=1;exitX=1;exitY=1;exitDx=0;exitDy=0;entryX=0;entryY=0;entryDx=0;entryDy=0;" edge="1" parent="1" source="jT8ozwWT_lObpIZQCRuP-61" target="jT8ozwWT_lObpIZQCRuP-68">
          <mxGeometry relative="1" as="geometry" />
        </mxCell>
        <mxCell id="jT8ozwWT_lObpIZQCRuP-61" value="100" style="ellipse;whiteSpace=wrap;html=1;aspect=fixed;fillColor=#f8cecc;strokeColor=#b85450;" parent="1" vertex="1">
          <mxGeometry x="238" y="429" width="47" height="47" as="geometry" />
        </mxCell>
        <mxCell id="jT8ozwWT_lObpIZQCRuP-62" style="edgeStyle=none;rounded=0;orthogonalLoop=1;jettySize=auto;html=1;exitX=0;exitY=1;exitDx=0;exitDy=0;entryX=1;entryY=0;entryDx=0;entryDy=0;" parent="1" source="jT8ozwWT_lObpIZQCRuP-64" target="jT8ozwWT_lObpIZQCRuP-65" edge="1">
          <mxGeometry relative="1" as="geometry" />
        </mxCell>
        <mxCell id="jT8ozwWT_lObpIZQCRuP-63" style="edgeStyle=none;rounded=0;orthogonalLoop=1;jettySize=auto;html=1;exitX=1;exitY=1;exitDx=0;exitDy=0;entryX=0;entryY=0;entryDx=0;entryDy=0;" parent="1" source="jT8ozwWT_lObpIZQCRuP-64" target="jT8ozwWT_lObpIZQCRuP-66" edge="1">
          <mxGeometry relative="1" as="geometry" />
        </mxCell>
        <mxCell id="jT8ozwWT_lObpIZQCRuP-64" value="50" style="ellipse;whiteSpace=wrap;html=1;aspect=fixed;" parent="1" vertex="1">
          <mxGeometry x="86" y="429" width="47" height="47" as="geometry" />
        </mxCell>
        <mxCell id="jT8ozwWT_lObpIZQCRuP-65" value="30" style="ellipse;whiteSpace=wrap;html=1;aspect=fixed;" parent="1" vertex="1">
          <mxGeometry x="28" y="514" width="47" height="47" as="geometry" />
        </mxCell>
        <mxCell id="jT8ozwWT_lObpIZQCRuP-66" value="20" style="ellipse;whiteSpace=wrap;html=1;aspect=fixed;" parent="1" vertex="1">
          <mxGeometry x="130" y="516" width="47" height="47" as="geometry" />
        </mxCell>
        <mxCell id="jT8ozwWT_lObpIZQCRuP-67" value="40" style="ellipse;whiteSpace=wrap;html=1;aspect=fixed;" parent="1" vertex="1">
          <mxGeometry x="197" y="516" width="47" height="47" as="geometry" />
        </mxCell>
        <mxCell id="jT8ozwWT_lObpIZQCRuP-68" value="65" style="ellipse;whiteSpace=wrap;html=1;aspect=fixed;fillColor=#d5e8d4;strokeColor=#82b366;" parent="1" vertex="1">
          <mxGeometry x="287" y="515.5" width="47" height="47" as="geometry" />
        </mxCell>
        <mxCell id="jT8ozwWT_lObpIZQCRuP-71" style="rounded=0;orthogonalLoop=1;jettySize=auto;html=1;exitX=0;exitY=1;exitDx=0;exitDy=0;entryX=1;entryY=0;entryDx=0;entryDy=0;" parent="1" source="jT8ozwWT_lObpIZQCRuP-73" target="jT8ozwWT_lObpIZQCRuP-78" edge="1">
          <mxGeometry relative="1" as="geometry" />
        </mxCell>
        <mxCell id="jT8ozwWT_lObpIZQCRuP-72" style="edgeStyle=none;rounded=0;orthogonalLoop=1;jettySize=auto;html=1;exitX=1;exitY=1;exitDx=0;exitDy=0;" parent="1" source="jT8ozwWT_lObpIZQCRuP-73" target="jT8ozwWT_lObpIZQCRuP-75" edge="1">
          <mxGeometry relative="1" as="geometry" />
        </mxCell>
        <mxCell id="jT8ozwWT_lObpIZQCRuP-73" value="100" style="ellipse;whiteSpace=wrap;html=1;aspect=fixed;fillColor=#f8cecc;strokeColor=#b85450;" parent="1" vertex="1">
          <mxGeometry x="172" y="710" width="47" height="47" as="geometry" />
        </mxCell>
        <mxCell id="jT8ozwWT_lObpIZQCRuP-74" style="edgeStyle=none;rounded=0;orthogonalLoop=1;jettySize=auto;html=1;exitX=0;exitY=1;exitDx=0;exitDy=0;entryX=1;entryY=0;entryDx=0;entryDy=0;" parent="1" source="jT8ozwWT_lObpIZQCRuP-75" target="jT8ozwWT_lObpIZQCRuP-81" edge="1">
          <mxGeometry relative="1" as="geometry" />
        </mxCell>
        <mxCell id="jT8ozwWT_lObpIZQCRuP-83" style="edgeStyle=none;rounded=0;orthogonalLoop=1;jettySize=auto;html=1;exitX=1;exitY=1;exitDx=0;exitDy=0;entryX=0;entryY=0;entryDx=0;entryDy=0;" parent="1" source="jT8ozwWT_lObpIZQCRuP-75" target="jT8ozwWT_lObpIZQCRuP-82" edge="1">
          <mxGeometry relative="1" as="geometry" />
        </mxCell>
        <mxCell id="jT8ozwWT_lObpIZQCRuP-75" value="70" style="ellipse;whiteSpace=wrap;html=1;aspect=fixed;fillColor=#dae8fc;strokeColor=#6c8ebf;" parent="1" vertex="1">
          <mxGeometry x="247" y="783" width="47" height="47" as="geometry" />
        </mxCell>
        <mxCell id="jT8ozwWT_lObpIZQCRuP-76" style="edgeStyle=none;rounded=0;orthogonalLoop=1;jettySize=auto;html=1;exitX=0;exitY=1;exitDx=0;exitDy=0;entryX=1;entryY=0;entryDx=0;entryDy=0;" parent="1" source="jT8ozwWT_lObpIZQCRuP-78" target="jT8ozwWT_lObpIZQCRuP-79" edge="1">
          <mxGeometry relative="1" as="geometry" />
        </mxCell>
        <mxCell id="jT8ozwWT_lObpIZQCRuP-77" style="edgeStyle=none;rounded=0;orthogonalLoop=1;jettySize=auto;html=1;exitX=1;exitY=1;exitDx=0;exitDy=0;entryX=0;entryY=0;entryDx=0;entryDy=0;" parent="1" source="jT8ozwWT_lObpIZQCRuP-78" target="jT8ozwWT_lObpIZQCRuP-80" edge="1">
          <mxGeometry relative="1" as="geometry" />
        </mxCell>
        <mxCell id="jT8ozwWT_lObpIZQCRuP-78" value="50" style="ellipse;whiteSpace=wrap;html=1;aspect=fixed;" parent="1" vertex="1">
          <mxGeometry x="95" y="783" width="47" height="47" as="geometry" />
        </mxCell>
        <mxCell id="jT8ozwWT_lObpIZQCRuP-79" value="30" style="ellipse;whiteSpace=wrap;html=1;aspect=fixed;" parent="1" vertex="1">
          <mxGeometry x="37" y="868" width="47" height="47" as="geometry" />
        </mxCell>
        <mxCell id="jT8ozwWT_lObpIZQCRuP-80" value="20" style="ellipse;whiteSpace=wrap;html=1;aspect=fixed;" parent="1" vertex="1">
          <mxGeometry x="139" y="870" width="47" height="47" as="geometry" />
        </mxCell>
        <mxCell id="jT8ozwWT_lObpIZQCRuP-81" value="40" style="ellipse;whiteSpace=wrap;html=1;aspect=fixed;" parent="1" vertex="1">
          <mxGeometry x="206" y="870" width="47" height="47" as="geometry" />
        </mxCell>
        <mxCell id="jT8ozwWT_lObpIZQCRuP-82" value="65" style="ellipse;whiteSpace=wrap;html=1;aspect=fixed;fillColor=#d5e8d4;strokeColor=#82b366;" parent="1" vertex="1">
          <mxGeometry x="294" y="870" width="47" height="47" as="geometry" />
        </mxCell>
        <mxCell id="jT8ozwWT_lObpIZQCRuP-84" value="" style="shape=flexArrow;endArrow=classic;html=1;rounded=0;fillColor=#e1d5e7;strokeColor=#9673a6;" parent="1" edge="1">
          <mxGeometry width="50" height="50" relative="1" as="geometry">
            <mxPoint x="185.99999999999986" y="597" as="sourcePoint" />
            <mxPoint x="185.99999999999986" y="673.0000000000002" as="targetPoint" />
          </mxGeometry>
        </mxCell>
        <mxCell id="EaAxDWcDgyqi5feDdvT0-1" style="rounded=0;orthogonalLoop=1;jettySize=auto;html=1;exitX=0;exitY=1;exitDx=0;exitDy=0;entryX=1;entryY=0;entryDx=0;entryDy=0;" parent="1" source="EaAxDWcDgyqi5feDdvT0-3" target="EaAxDWcDgyqi5feDdvT0-8" edge="1">
          <mxGeometry relative="1" as="geometry" />
        </mxCell>
        <mxCell id="EaAxDWcDgyqi5feDdvT0-2" style="edgeStyle=none;rounded=0;orthogonalLoop=1;jettySize=auto;html=1;exitX=1;exitY=1;exitDx=0;exitDy=0;" parent="1" source="EaAxDWcDgyqi5feDdvT0-3" target="EaAxDWcDgyqi5feDdvT0-5" edge="1">
          <mxGeometry relative="1" as="geometry" />
        </mxCell>
        <mxCell id="EaAxDWcDgyqi5feDdvT0-3" value="70" style="ellipse;whiteSpace=wrap;html=1;aspect=fixed;" parent="1" vertex="1">
          <mxGeometry x="1325" y="-3" width="47" height="47" as="geometry" />
        </mxCell>
        <mxCell id="EaAxDWcDgyqi5feDdvT0-4" style="edgeStyle=none;rounded=0;orthogonalLoop=1;jettySize=auto;html=1;exitX=0;exitY=1;exitDx=0;exitDy=0;entryX=1;entryY=0;entryDx=0;entryDy=0;" parent="1" source="EaAxDWcDgyqi5feDdvT0-5" target="EaAxDWcDgyqi5feDdvT0-11" edge="1">
          <mxGeometry relative="1" as="geometry" />
        </mxCell>
        <mxCell id="EaAxDWcDgyqi5feDdvT0-5" value="30" style="ellipse;whiteSpace=wrap;html=1;aspect=fixed;" parent="1" vertex="1">
          <mxGeometry x="1400" y="70" width="47" height="47" as="geometry" />
        </mxCell>
        <mxCell id="EaAxDWcDgyqi5feDdvT0-6" style="edgeStyle=none;rounded=0;orthogonalLoop=1;jettySize=auto;html=1;exitX=0;exitY=1;exitDx=0;exitDy=0;entryX=1;entryY=0;entryDx=0;entryDy=0;" parent="1" source="EaAxDWcDgyqi5feDdvT0-8" target="EaAxDWcDgyqi5feDdvT0-9" edge="1">
          <mxGeometry relative="1" as="geometry" />
        </mxCell>
        <mxCell id="EaAxDWcDgyqi5feDdvT0-7" style="edgeStyle=none;rounded=0;orthogonalLoop=1;jettySize=auto;html=1;exitX=1;exitY=1;exitDx=0;exitDy=0;entryX=0;entryY=0;entryDx=0;entryDy=0;" parent="1" source="EaAxDWcDgyqi5feDdvT0-8" target="EaAxDWcDgyqi5feDdvT0-10" edge="1">
          <mxGeometry relative="1" as="geometry" />
        </mxCell>
        <mxCell id="EaAxDWcDgyqi5feDdvT0-8" value="56" style="ellipse;whiteSpace=wrap;html=1;aspect=fixed;" parent="1" vertex="1">
          <mxGeometry x="1248" y="70" width="47" height="47" as="geometry" />
        </mxCell>
        <mxCell id="EaAxDWcDgyqi5feDdvT0-9" value="25" style="ellipse;whiteSpace=wrap;html=1;aspect=fixed;" parent="1" vertex="1">
          <mxGeometry x="1190" y="155" width="47" height="47" as="geometry" />
        </mxCell>
        <mxCell id="EaAxDWcDgyqi5feDdvT0-10" value="15" style="ellipse;whiteSpace=wrap;html=1;aspect=fixed;" parent="1" vertex="1">
          <mxGeometry x="1292" y="157" width="47" height="47" as="geometry" />
        </mxCell>
        <mxCell id="EaAxDWcDgyqi5feDdvT0-11" value="10" style="ellipse;whiteSpace=wrap;html=1;aspect=fixed;" parent="1" vertex="1">
          <mxGeometry x="1359" y="157" width="47" height="47" as="geometry" />
        </mxCell>
        <mxCell id="EaAxDWcDgyqi5feDdvT0-12" value="12" style="ellipse;whiteSpace=wrap;html=1;aspect=fixed;fillColor=#f8cecc;strokeColor=#b85450;" parent="1" vertex="1">
          <mxGeometry x="1453" y="162.5" width="47" height="47" as="geometry" />
        </mxCell>
        <mxCell id="EaAxDWcDgyqi5feDdvT0-13" value="70" style="rounded=0;whiteSpace=wrap;html=1;fillColor=#fff2cc;strokeColor=#d6b656;" parent="1" vertex="1">
          <mxGeometry x="1655" y="-23.999999999999886" width="80" height="62" as="geometry" />
        </mxCell>
        <mxCell id="EaAxDWcDgyqi5feDdvT0-14" value="56" style="rounded=0;whiteSpace=wrap;html=1;fillColor=#fff2cc;strokeColor=#d6b656;" parent="1" vertex="1">
          <mxGeometry x="1619" y="60.000000000000114" width="80" height="62" as="geometry" />
        </mxCell>
        <mxCell id="EaAxDWcDgyqi5feDdvT0-15" value="30" style="rounded=0;whiteSpace=wrap;html=1;fillColor=#fff2cc;strokeColor=#d6b656;" parent="1" vertex="1">
          <mxGeometry x="1699" y="60.000000000000114" width="80" height="62" as="geometry" />
        </mxCell>
        <mxCell id="EaAxDWcDgyqi5feDdvT0-16" value="25" style="rounded=0;whiteSpace=wrap;html=1;fillColor=#fff2cc;strokeColor=#d6b656;" parent="1" vertex="1">
          <mxGeometry x="1539" y="147.5000000000001" width="80" height="62" as="geometry" />
        </mxCell>
        <mxCell id="EaAxDWcDgyqi5feDdvT0-17" value="15" style="rounded=0;whiteSpace=wrap;html=1;fillColor=#fff2cc;strokeColor=#d6b656;" parent="1" vertex="1">
          <mxGeometry x="1619" y="147.5000000000001" width="80" height="62" as="geometry" />
        </mxCell>
        <mxCell id="EaAxDWcDgyqi5feDdvT0-18" value="10" style="rounded=0;whiteSpace=wrap;html=1;fillColor=#fff2cc;strokeColor=#d6b656;" parent="1" vertex="1">
          <mxGeometry x="1699" y="147.5000000000001" width="80" height="62" as="geometry" />
        </mxCell>
        <mxCell id="EaAxDWcDgyqi5feDdvT0-19" value="" style="endArrow=classic;html=1;rounded=0;" parent="1" edge="1">
          <mxGeometry width="50" height="50" relative="1" as="geometry">
            <mxPoint x="1781" y="282" as="sourcePoint" />
            <mxPoint x="1781" y="222" as="targetPoint" />
          </mxGeometry>
        </mxCell>
        <mxCell id="EaAxDWcDgyqi5feDdvT0-20" value="a" style="text;html=1;align=center;verticalAlign=middle;resizable=0;points=[];autosize=1;strokeColor=none;fillColor=none;" parent="1" vertex="1">
          <mxGeometry x="1779" y="238" width="25" height="26" as="geometry" />
        </mxCell>
        <mxCell id="EaAxDWcDgyqi5feDdvT0-22" style="rounded=0;orthogonalLoop=1;jettySize=auto;html=1;exitX=0;exitY=1;exitDx=0;exitDy=0;entryX=1;entryY=0;entryDx=0;entryDy=0;" parent="1" source="EaAxDWcDgyqi5feDdvT0-24" target="EaAxDWcDgyqi5feDdvT0-29" edge="1">
          <mxGeometry relative="1" as="geometry" />
        </mxCell>
        <mxCell id="EaAxDWcDgyqi5feDdvT0-23" style="edgeStyle=none;rounded=0;orthogonalLoop=1;jettySize=auto;html=1;exitX=1;exitY=1;exitDx=0;exitDy=0;" parent="1" source="EaAxDWcDgyqi5feDdvT0-24" target="EaAxDWcDgyqi5feDdvT0-26" edge="1">
          <mxGeometry relative="1" as="geometry" />
        </mxCell>
        <mxCell id="EaAxDWcDgyqi5feDdvT0-24" value="70" style="ellipse;whiteSpace=wrap;html=1;aspect=fixed;" parent="1" vertex="1">
          <mxGeometry x="2681.5" y="325" width="47" height="47" as="geometry" />
        </mxCell>
        <mxCell id="EaAxDWcDgyqi5feDdvT0-25" style="edgeStyle=none;rounded=0;orthogonalLoop=1;jettySize=auto;html=1;exitX=0;exitY=1;exitDx=0;exitDy=0;entryX=1;entryY=0;entryDx=0;entryDy=0;" parent="1" source="EaAxDWcDgyqi5feDdvT0-26" target="EaAxDWcDgyqi5feDdvT0-32" edge="1">
          <mxGeometry relative="1" as="geometry" />
        </mxCell>
        <mxCell id="EaAxDWcDgyqi5feDdvT0-26" value="30" style="ellipse;whiteSpace=wrap;html=1;aspect=fixed;" parent="1" vertex="1">
          <mxGeometry x="2756.5" y="398" width="47" height="47" as="geometry" />
        </mxCell>
        <mxCell id="EaAxDWcDgyqi5feDdvT0-27" style="edgeStyle=none;rounded=0;orthogonalLoop=1;jettySize=auto;html=1;exitX=0;exitY=1;exitDx=0;exitDy=0;entryX=1;entryY=0;entryDx=0;entryDy=0;" parent="1" source="EaAxDWcDgyqi5feDdvT0-29" target="EaAxDWcDgyqi5feDdvT0-30" edge="1">
          <mxGeometry relative="1" as="geometry" />
        </mxCell>
        <mxCell id="EaAxDWcDgyqi5feDdvT0-28" style="edgeStyle=none;rounded=0;orthogonalLoop=1;jettySize=auto;html=1;exitX=1;exitY=1;exitDx=0;exitDy=0;entryX=0;entryY=0;entryDx=0;entryDy=0;" parent="1" source="EaAxDWcDgyqi5feDdvT0-29" target="EaAxDWcDgyqi5feDdvT0-31" edge="1">
          <mxGeometry relative="1" as="geometry" />
        </mxCell>
        <mxCell id="EaAxDWcDgyqi5feDdvT0-29" value="56" style="ellipse;whiteSpace=wrap;html=1;aspect=fixed;" parent="1" vertex="1">
          <mxGeometry x="2604.5" y="398" width="47" height="47" as="geometry" />
        </mxCell>
        <mxCell id="EaAxDWcDgyqi5feDdvT0-30" value="25" style="ellipse;whiteSpace=wrap;html=1;aspect=fixed;" parent="1" vertex="1">
          <mxGeometry x="2546.5" y="483" width="47" height="47" as="geometry" />
        </mxCell>
        <mxCell id="EaAxDWcDgyqi5feDdvT0-31" value="15" style="ellipse;whiteSpace=wrap;html=1;aspect=fixed;" parent="1" vertex="1">
          <mxGeometry x="2648.5" y="485" width="47" height="47" as="geometry" />
        </mxCell>
        <mxCell id="EaAxDWcDgyqi5feDdvT0-32" value="10" style="ellipse;whiteSpace=wrap;html=1;aspect=fixed;" parent="1" vertex="1">
          <mxGeometry x="2715.5" y="485" width="47" height="47" as="geometry" />
        </mxCell>
        <mxCell id="EaAxDWcDgyqi5feDdvT0-33" value="100" style="ellipse;whiteSpace=wrap;html=1;aspect=fixed;fillColor=#f8cecc;strokeColor=#b85450;" parent="1" vertex="1">
          <mxGeometry x="2809.5" y="490.5" width="47" height="47" as="geometry" />
        </mxCell>
        <mxCell id="EaAxDWcDgyqi5feDdvT0-34" value="70" style="rounded=0;whiteSpace=wrap;html=1;fillColor=#fff2cc;strokeColor=#d6b656;" parent="1" vertex="1">
          <mxGeometry x="3011.5" y="304.0000000000001" width="80" height="62" as="geometry" />
        </mxCell>
        <mxCell id="EaAxDWcDgyqi5feDdvT0-35" value="56" style="rounded=0;whiteSpace=wrap;html=1;fillColor=#fff2cc;strokeColor=#d6b656;" parent="1" vertex="1">
          <mxGeometry x="2975.5" y="388.0000000000001" width="80" height="62" as="geometry" />
        </mxCell>
        <mxCell id="EaAxDWcDgyqi5feDdvT0-36" value="30" style="rounded=0;whiteSpace=wrap;html=1;fillColor=#fff2cc;strokeColor=#d6b656;" parent="1" vertex="1">
          <mxGeometry x="3055.5" y="388.0000000000001" width="80" height="62" as="geometry" />
        </mxCell>
        <mxCell id="EaAxDWcDgyqi5feDdvT0-37" value="25" style="rounded=0;whiteSpace=wrap;html=1;fillColor=#fff2cc;strokeColor=#d6b656;" parent="1" vertex="1">
          <mxGeometry x="2895.5" y="475.5000000000001" width="80" height="62" as="geometry" />
        </mxCell>
        <mxCell id="EaAxDWcDgyqi5feDdvT0-38" value="15" style="rounded=0;whiteSpace=wrap;html=1;fillColor=#fff2cc;strokeColor=#d6b656;" parent="1" vertex="1">
          <mxGeometry x="2975.5" y="475.5000000000001" width="80" height="62" as="geometry" />
        </mxCell>
        <mxCell id="EaAxDWcDgyqi5feDdvT0-39" value="10" style="rounded=0;whiteSpace=wrap;html=1;fillColor=#fff2cc;strokeColor=#d6b656;" parent="1" vertex="1">
          <mxGeometry x="3055.5" y="475.5000000000001" width="80" height="62" as="geometry" />
        </mxCell>
        <mxCell id="EaAxDWcDgyqi5feDdvT0-41" value="向上调整" style="text;html=1;align=center;verticalAlign=middle;resizable=0;points=[];autosize=1;strokeColor=none;fillColor=none;" parent="1" vertex="1">
          <mxGeometry x="2426.5" y="433" width="66" height="26" as="geometry" />
        </mxCell>
        <mxCell id="EaAxDWcDgyqi5feDdvT0-42" style="rounded=0;orthogonalLoop=1;jettySize=auto;html=1;exitX=0;exitY=1;exitDx=0;exitDy=0;entryX=1;entryY=0;entryDx=0;entryDy=0;" parent="1" source="EaAxDWcDgyqi5feDdvT0-44" target="EaAxDWcDgyqi5feDdvT0-49" edge="1">
          <mxGeometry relative="1" as="geometry" />
        </mxCell>
        <mxCell id="EaAxDWcDgyqi5feDdvT0-43" style="edgeStyle=none;rounded=0;orthogonalLoop=1;jettySize=auto;html=1;exitX=1;exitY=1;exitDx=0;exitDy=0;" parent="1" source="EaAxDWcDgyqi5feDdvT0-44" target="EaAxDWcDgyqi5feDdvT0-46" edge="1">
          <mxGeometry relative="1" as="geometry" />
        </mxCell>
        <mxCell id="EaAxDWcDgyqi5feDdvT0-44" value="70" style="ellipse;whiteSpace=wrap;html=1;aspect=fixed;" parent="1" vertex="1">
          <mxGeometry x="1879" y="1515" width="47" height="47" as="geometry" />
        </mxCell>
        <mxCell id="EaAxDWcDgyqi5feDdvT0-45" style="edgeStyle=none;rounded=0;orthogonalLoop=1;jettySize=auto;html=1;exitX=0;exitY=1;exitDx=0;exitDy=0;entryX=1;entryY=0;entryDx=0;entryDy=0;" parent="1" source="EaAxDWcDgyqi5feDdvT0-46" target="EaAxDWcDgyqi5feDdvT0-52" edge="1">
          <mxGeometry relative="1" as="geometry" />
        </mxCell>
        <mxCell id="EaAxDWcDgyqi5feDdvT0-66" style="rounded=0;orthogonalLoop=1;jettySize=auto;html=1;exitX=1;exitY=1;exitDx=0;exitDy=0;entryX=0;entryY=0;entryDx=0;entryDy=0;" parent="1" source="EaAxDWcDgyqi5feDdvT0-46" target="EaAxDWcDgyqi5feDdvT0-53" edge="1">
          <mxGeometry relative="1" as="geometry" />
        </mxCell>
        <mxCell id="EaAxDWcDgyqi5feDdvT0-46" value="30" style="ellipse;whiteSpace=wrap;html=1;aspect=fixed;" parent="1" vertex="1">
          <mxGeometry x="1954" y="1588" width="47" height="47" as="geometry" />
        </mxCell>
        <mxCell id="EaAxDWcDgyqi5feDdvT0-47" style="edgeStyle=none;rounded=0;orthogonalLoop=1;jettySize=auto;html=1;exitX=0;exitY=1;exitDx=0;exitDy=0;entryX=1;entryY=0;entryDx=0;entryDy=0;" parent="1" source="EaAxDWcDgyqi5feDdvT0-49" target="EaAxDWcDgyqi5feDdvT0-50" edge="1">
          <mxGeometry relative="1" as="geometry" />
        </mxCell>
        <mxCell id="EaAxDWcDgyqi5feDdvT0-48" style="edgeStyle=none;rounded=0;orthogonalLoop=1;jettySize=auto;html=1;exitX=1;exitY=1;exitDx=0;exitDy=0;entryX=0;entryY=0;entryDx=0;entryDy=0;" parent="1" source="EaAxDWcDgyqi5feDdvT0-49" target="EaAxDWcDgyqi5feDdvT0-51" edge="1">
          <mxGeometry relative="1" as="geometry" />
        </mxCell>
        <mxCell id="EaAxDWcDgyqi5feDdvT0-49" value="56" style="ellipse;whiteSpace=wrap;html=1;aspect=fixed;" parent="1" vertex="1">
          <mxGeometry x="1802" y="1588" width="47" height="47" as="geometry" />
        </mxCell>
        <mxCell id="EaAxDWcDgyqi5feDdvT0-50" value="25" style="ellipse;whiteSpace=wrap;html=1;aspect=fixed;" parent="1" vertex="1">
          <mxGeometry x="1744" y="1673" width="47" height="47" as="geometry" />
        </mxCell>
        <mxCell id="EaAxDWcDgyqi5feDdvT0-51" value="15" style="ellipse;whiteSpace=wrap;html=1;aspect=fixed;" parent="1" vertex="1">
          <mxGeometry x="1846" y="1675" width="47" height="47" as="geometry" />
        </mxCell>
        <mxCell id="EaAxDWcDgyqi5feDdvT0-52" value="10" style="ellipse;whiteSpace=wrap;html=1;aspect=fixed;" parent="1" vertex="1">
          <mxGeometry x="1913" y="1675" width="47" height="47" as="geometry" />
        </mxCell>
        <mxCell id="EaAxDWcDgyqi5feDdvT0-53" value="12" style="ellipse;whiteSpace=wrap;html=1;aspect=fixed;" parent="1" vertex="1">
          <mxGeometry x="2007" y="1680.5" width="47" height="47" as="geometry" />
        </mxCell>
        <mxCell id="EaAxDWcDgyqi5feDdvT0-54" value="70" style="rounded=0;whiteSpace=wrap;html=1;fillColor=#fff2cc;strokeColor=#d6b656;" parent="1" vertex="1">
          <mxGeometry x="2218" y="1478" width="80" height="62" as="geometry" />
        </mxCell>
        <mxCell id="EaAxDWcDgyqi5feDdvT0-55" value="56" style="rounded=0;whiteSpace=wrap;html=1;fillColor=#fff2cc;strokeColor=#d6b656;" parent="1" vertex="1">
          <mxGeometry x="2173" y="1578" width="80" height="62" as="geometry" />
        </mxCell>
        <mxCell id="EaAxDWcDgyqi5feDdvT0-56" value="30" style="rounded=0;whiteSpace=wrap;html=1;fillColor=#fff2cc;strokeColor=#d6b656;" parent="1" vertex="1">
          <mxGeometry x="2253" y="1578" width="80" height="62" as="geometry" />
        </mxCell>
        <mxCell id="EaAxDWcDgyqi5feDdvT0-57" value="25" style="rounded=0;whiteSpace=wrap;html=1;fillColor=#fff2cc;strokeColor=#d6b656;" parent="1" vertex="1">
          <mxGeometry x="2093" y="1665.5" width="80" height="62" as="geometry" />
        </mxCell>
        <mxCell id="EaAxDWcDgyqi5feDdvT0-58" value="15" style="rounded=0;whiteSpace=wrap;html=1;fillColor=#fff2cc;strokeColor=#d6b656;" parent="1" vertex="1">
          <mxGeometry x="2173" y="1665.5" width="80" height="62" as="geometry" />
        </mxCell>
        <mxCell id="EaAxDWcDgyqi5feDdvT0-59" value="10" style="rounded=0;whiteSpace=wrap;html=1;fillColor=#fff2cc;strokeColor=#d6b656;" parent="1" vertex="1">
          <mxGeometry x="2253" y="1665.5" width="80" height="62" as="geometry" />
        </mxCell>
        <mxCell id="EaAxDWcDgyqi5feDdvT0-62" value="" style="endArrow=classic;html=1;rounded=0;" parent="1" edge="1">
          <mxGeometry width="50" height="50" relative="1" as="geometry">
            <mxPoint x="3134.5000000000005" y="613" as="sourcePoint" />
            <mxPoint x="3134.5000000000005" y="553" as="targetPoint" />
          </mxGeometry>
        </mxCell>
        <mxCell id="EaAxDWcDgyqi5feDdvT0-63" value="a" style="text;html=1;align=center;verticalAlign=middle;resizable=0;points=[];autosize=1;strokeColor=none;fillColor=none;" parent="1" vertex="1">
          <mxGeometry x="3132.5" y="569" width="25" height="26" as="geometry" />
        </mxCell>
        <mxCell id="EaAxDWcDgyqi5feDdvT0-64" value="" style="endArrow=classic;html=1;rounded=0;" parent="1" edge="1">
          <mxGeometry width="50" height="50" relative="1" as="geometry">
            <mxPoint x="2415.0000000000005" y="1807" as="sourcePoint" />
            <mxPoint x="2415.0000000000005" y="1747" as="targetPoint" />
          </mxGeometry>
        </mxCell>
        <mxCell id="EaAxDWcDgyqi5feDdvT0-65" value="a" style="text;html=1;align=center;verticalAlign=middle;resizable=0;points=[];autosize=1;strokeColor=none;fillColor=none;" parent="1" vertex="1">
          <mxGeometry x="2413" y="1763" width="25" height="26" as="geometry" />
        </mxCell>
        <mxCell id="EaAxDWcDgyqi5feDdvT0-67" value="12" style="rounded=0;whiteSpace=wrap;html=1;fillColor=#fff2cc;strokeColor=#d6b656;" parent="1" vertex="1">
          <mxGeometry x="2333" y="1665.5" width="80" height="62" as="geometry" />
        </mxCell>
        <mxCell id="EaAxDWcDgyqi5feDdvT0-68" value="parent = (child-1)/2" style="text;html=1;align=center;verticalAlign=middle;resizable=0;points=[];autosize=1;strokeColor=#d79b00;fillColor=#ffe6cc;" parent="1" vertex="1">
          <mxGeometry x="2352.5" y="489.5" width="119" height="26" as="geometry" />
        </mxCell>
        <mxCell id="EaAxDWcDgyqi5feDdvT0-69" value="尾插依旧保持是个堆" style="text;html=1;align=center;verticalAlign=middle;resizable=0;points=[];autosize=1;strokeColor=#d79b00;fillColor=#ffe6cc;fontSize=20;" parent="1" vertex="1">
          <mxGeometry x="1575" y="-174" width="198" height="36" as="geometry" />
        </mxCell>
        <mxCell id="EaAxDWcDgyqi5feDdvT0-70" value="70" style="rounded=0;whiteSpace=wrap;html=1;fillColor=#fff2cc;strokeColor=#d6b656;" parent="1" vertex="1">
          <mxGeometry x="3259" y="180.0000000000001" width="80" height="62" as="geometry" />
        </mxCell>
        <mxCell id="EaAxDWcDgyqi5feDdvT0-71" value="56" style="rounded=0;whiteSpace=wrap;html=1;fillColor=#fff2cc;strokeColor=#d6b656;" parent="1" vertex="1">
          <mxGeometry x="3339" y="180.0000000000001" width="80" height="62" as="geometry" />
        </mxCell>
        <mxCell id="EaAxDWcDgyqi5feDdvT0-72" value="30" style="rounded=0;whiteSpace=wrap;html=1;fillColor=#dae8fc;strokeColor=#6c8ebf;" parent="1" vertex="1">
          <mxGeometry x="3419" y="180.0000000000001" width="80" height="62" as="geometry" />
        </mxCell>
        <mxCell id="EaAxDWcDgyqi5feDdvT0-73" value="25" style="rounded=0;whiteSpace=wrap;html=1;fillColor=#fff2cc;strokeColor=#d6b656;" parent="1" vertex="1">
          <mxGeometry x="3499" y="180.0000000000001" width="80" height="62" as="geometry" />
        </mxCell>
        <mxCell id="EaAxDWcDgyqi5feDdvT0-74" value="15" style="rounded=0;whiteSpace=wrap;html=1;fillColor=#fff2cc;strokeColor=#d6b656;" parent="1" vertex="1">
          <mxGeometry x="3579" y="180.0000000000001" width="80" height="62" as="geometry" />
        </mxCell>
        <mxCell id="EaAxDWcDgyqi5feDdvT0-75" value="10" style="rounded=0;whiteSpace=wrap;html=1;fillColor=#fff2cc;strokeColor=#d6b656;" parent="1" vertex="1">
          <mxGeometry x="3659" y="180.0000000000001" width="80" height="62" as="geometry" />
        </mxCell>
        <mxCell id="EaAxDWcDgyqi5feDdvT0-76" value="" style="endArrow=classic;html=1;rounded=0;" parent="1" edge="1">
          <mxGeometry width="50" height="50" relative="1" as="geometry">
            <mxPoint x="3821.0000000000005" y="309.9999999999998" as="sourcePoint" />
            <mxPoint x="3821.0000000000005" y="249.99999999999977" as="targetPoint" />
          </mxGeometry>
        </mxCell>
        <mxCell id="EaAxDWcDgyqi5feDdvT0-77" value="size" style="text;html=1;align=center;verticalAlign=middle;resizable=0;points=[];autosize=1;strokeColor=none;fillColor=none;" parent="1" vertex="1">
          <mxGeometry x="3812" y="266" width="39" height="26" as="geometry" />
        </mxCell>
        <mxCell id="EaAxDWcDgyqi5feDdvT0-86" value="100" style="rounded=0;whiteSpace=wrap;html=1;fillColor=#f8cecc;strokeColor=#b85450;" parent="1" vertex="1">
          <mxGeometry x="3739" y="180.0000000000001" width="80" height="62" as="geometry" />
        </mxCell>
        <mxCell id="EaAxDWcDgyqi5feDdvT0-88" value="" style="endArrow=classic;html=1;rounded=0;fillColor=#f8cecc;strokeColor=#b85450;" parent="1" edge="1">
          <mxGeometry width="50" height="50" relative="1" as="geometry">
            <mxPoint x="3740.0000000000005" y="311.9999999999998" as="sourcePoint" />
            <mxPoint x="3740.0000000000005" y="251.99999999999977" as="targetPoint" />
          </mxGeometry>
        </mxCell>
        <mxCell id="EaAxDWcDgyqi5feDdvT0-89" value="child" style="text;html=1;align=center;verticalAlign=middle;resizable=0;points=[];autosize=1;strokeColor=none;fillColor=none;" parent="1" vertex="1">
          <mxGeometry x="3729" y="268" width="43" height="26" as="geometry" />
        </mxCell>
        <mxCell id="EaAxDWcDgyqi5feDdvT0-90" value="" style="endArrow=classic;html=1;rounded=0;fillColor=#f8cecc;strokeColor=#b85450;" parent="1" edge="1">
          <mxGeometry width="50" height="50" relative="1" as="geometry">
            <mxPoint x="3419.0000000000005" y="315.9999999999998" as="sourcePoint" />
            <mxPoint x="3419.0000000000005" y="255.99999999999977" as="targetPoint" />
          </mxGeometry>
        </mxCell>
        <mxCell id="EaAxDWcDgyqi5feDdvT0-91" value="parent" style="text;html=1;align=center;verticalAlign=middle;resizable=0;points=[];autosize=1;strokeColor=none;fillColor=none;" parent="1" vertex="1">
          <mxGeometry x="3404" y="272" width="52" height="26" as="geometry" />
        </mxCell>
        <mxCell id="EaAxDWcDgyqi5feDdvT0-92" value="70" style="rounded=0;whiteSpace=wrap;html=1;fillColor=#fff2cc;strokeColor=#d6b656;" parent="1" vertex="1">
          <mxGeometry x="3263" y="354.5000000000001" width="80" height="62" as="geometry" />
        </mxCell>
        <mxCell id="EaAxDWcDgyqi5feDdvT0-93" value="56" style="rounded=0;whiteSpace=wrap;html=1;fillColor=#fff2cc;strokeColor=#d6b656;" parent="1" vertex="1">
          <mxGeometry x="3343" y="354.5000000000001" width="80" height="62" as="geometry" />
        </mxCell>
        <mxCell id="EaAxDWcDgyqi5feDdvT0-94" value="30" style="rounded=0;whiteSpace=wrap;html=1;fillColor=#dae8fc;strokeColor=#6c8ebf;" parent="1" vertex="1">
          <mxGeometry x="3743" y="354.5000000000001" width="80" height="62" as="geometry" />
        </mxCell>
        <mxCell id="EaAxDWcDgyqi5feDdvT0-95" value="25" style="rounded=0;whiteSpace=wrap;html=1;fillColor=#fff2cc;strokeColor=#d6b656;" parent="1" vertex="1">
          <mxGeometry x="3503" y="354.5000000000001" width="80" height="62" as="geometry" />
        </mxCell>
        <mxCell id="EaAxDWcDgyqi5feDdvT0-96" value="15" style="rounded=0;whiteSpace=wrap;html=1;fillColor=#fff2cc;strokeColor=#d6b656;" parent="1" vertex="1">
          <mxGeometry x="3583" y="354.5000000000001" width="80" height="62" as="geometry" />
        </mxCell>
        <mxCell id="EaAxDWcDgyqi5feDdvT0-97" value="10" style="rounded=0;whiteSpace=wrap;html=1;fillColor=#fff2cc;strokeColor=#d6b656;" parent="1" vertex="1">
          <mxGeometry x="3663" y="354.5000000000001" width="80" height="62" as="geometry" />
        </mxCell>
        <mxCell id="EaAxDWcDgyqi5feDdvT0-98" value="" style="endArrow=classic;html=1;rounded=0;" parent="1" edge="1">
          <mxGeometry width="50" height="50" relative="1" as="geometry">
            <mxPoint x="3825.0000000000005" y="484.4999999999998" as="sourcePoint" />
            <mxPoint x="3825.0000000000005" y="424.4999999999998" as="targetPoint" />
          </mxGeometry>
        </mxCell>
        <mxCell id="EaAxDWcDgyqi5feDdvT0-99" value="size" style="text;html=1;align=center;verticalAlign=middle;resizable=0;points=[];autosize=1;strokeColor=none;fillColor=none;" parent="1" vertex="1">
          <mxGeometry x="3816" y="440.5" width="39" height="26" as="geometry" />
        </mxCell>
        <mxCell id="EaAxDWcDgyqi5feDdvT0-100" value="100" style="rounded=0;whiteSpace=wrap;html=1;fillColor=#f8cecc;strokeColor=#b85450;" parent="1" vertex="1">
          <mxGeometry x="3423" y="354.5000000000001" width="80" height="62" as="geometry" />
        </mxCell>
        <mxCell id="EaAxDWcDgyqi5feDdvT0-101" value="" style="endArrow=classic;html=1;rounded=0;fillColor=#f8cecc;strokeColor=#b85450;" parent="1" edge="1">
          <mxGeometry width="50" height="50" relative="1" as="geometry">
            <mxPoint x="3424.0000000000005" y="491.9999999999998" as="sourcePoint" />
            <mxPoint x="3424.0000000000005" y="431.9999999999998" as="targetPoint" />
          </mxGeometry>
        </mxCell>
        <mxCell id="EaAxDWcDgyqi5feDdvT0-102" value="child" style="text;html=1;align=center;verticalAlign=middle;resizable=0;points=[];autosize=1;strokeColor=none;fillColor=none;" parent="1" vertex="1">
          <mxGeometry x="3413" y="448" width="43" height="26" as="geometry" />
        </mxCell>
        <mxCell id="EaAxDWcDgyqi5feDdvT0-103" value="" style="endArrow=classic;html=1;rounded=0;fillColor=#f8cecc;strokeColor=#b85450;" parent="1" edge="1">
          <mxGeometry width="50" height="50" relative="1" as="geometry">
            <mxPoint x="3264.0000000000005" y="487.9999999999998" as="sourcePoint" />
            <mxPoint x="3264.0000000000005" y="427.9999999999998" as="targetPoint" />
          </mxGeometry>
        </mxCell>
        <mxCell id="EaAxDWcDgyqi5feDdvT0-104" value="parent" style="text;html=1;align=center;verticalAlign=middle;resizable=0;points=[];autosize=1;strokeColor=none;fillColor=none;" parent="1" vertex="1">
          <mxGeometry x="3249" y="444" width="52" height="26" as="geometry" />
        </mxCell>
        <mxCell id="EaAxDWcDgyqi5feDdvT0-105" value="70" style="rounded=0;whiteSpace=wrap;html=1;fillColor=#dae8fc;strokeColor=#6c8ebf;" parent="1" vertex="1">
          <mxGeometry x="3425" y="564.5000000000001" width="80" height="62" as="geometry" />
        </mxCell>
        <mxCell id="EaAxDWcDgyqi5feDdvT0-106" value="56" style="rounded=0;whiteSpace=wrap;html=1;fillColor=#fff2cc;strokeColor=#d6b656;" parent="1" vertex="1">
          <mxGeometry x="3345" y="564.5000000000001" width="80" height="62" as="geometry" />
        </mxCell>
        <mxCell id="EaAxDWcDgyqi5feDdvT0-107" value="30" style="rounded=0;whiteSpace=wrap;html=1;fillColor=#fff2cc;strokeColor=#d6b656;" parent="1" vertex="1">
          <mxGeometry x="3745" y="564.5000000000001" width="80" height="62" as="geometry" />
        </mxCell>
        <mxCell id="EaAxDWcDgyqi5feDdvT0-108" value="25" style="rounded=0;whiteSpace=wrap;html=1;fillColor=#fff2cc;strokeColor=#d6b656;" parent="1" vertex="1">
          <mxGeometry x="3505" y="564.5000000000001" width="80" height="62" as="geometry" />
        </mxCell>
        <mxCell id="EaAxDWcDgyqi5feDdvT0-109" value="15" style="rounded=0;whiteSpace=wrap;html=1;fillColor=#fff2cc;strokeColor=#d6b656;" parent="1" vertex="1">
          <mxGeometry x="3585" y="564.5000000000001" width="80" height="62" as="geometry" />
        </mxCell>
        <mxCell id="EaAxDWcDgyqi5feDdvT0-110" value="10" style="rounded=0;whiteSpace=wrap;html=1;fillColor=#fff2cc;strokeColor=#d6b656;" parent="1" vertex="1">
          <mxGeometry x="3665" y="564.5000000000001" width="80" height="62" as="geometry" />
        </mxCell>
        <mxCell id="EaAxDWcDgyqi5feDdvT0-111" value="" style="endArrow=classic;html=1;rounded=0;" parent="1" edge="1">
          <mxGeometry width="50" height="50" relative="1" as="geometry">
            <mxPoint x="3827.0000000000005" y="694.4999999999998" as="sourcePoint" />
            <mxPoint x="3827.0000000000005" y="634.4999999999998" as="targetPoint" />
          </mxGeometry>
        </mxCell>
        <mxCell id="EaAxDWcDgyqi5feDdvT0-112" value="size" style="text;html=1;align=center;verticalAlign=middle;resizable=0;points=[];autosize=1;strokeColor=none;fillColor=none;" parent="1" vertex="1">
          <mxGeometry x="3818" y="650.5" width="39" height="26" as="geometry" />
        </mxCell>
        <mxCell id="EaAxDWcDgyqi5feDdvT0-113" value="100" style="rounded=0;whiteSpace=wrap;html=1;fillColor=#f8cecc;strokeColor=#b85450;" parent="1" vertex="1">
          <mxGeometry x="3265" y="564.5000000000001" width="80" height="62" as="geometry" />
        </mxCell>
        <mxCell id="EaAxDWcDgyqi5feDdvT0-114" value="" style="endArrow=classic;html=1;rounded=0;fillColor=#f8cecc;strokeColor=#b85450;" parent="1" edge="1">
          <mxGeometry width="50" height="50" relative="1" as="geometry">
            <mxPoint x="3266.5000000000005" y="776.9999999999998" as="sourcePoint" />
            <mxPoint x="3266.5000000000005" y="716.9999999999998" as="targetPoint" />
          </mxGeometry>
        </mxCell>
        <mxCell id="EaAxDWcDgyqi5feDdvT0-115" value="child" style="text;html=1;align=center;verticalAlign=middle;resizable=0;points=[];autosize=1;strokeColor=none;fillColor=none;" parent="1" vertex="1">
          <mxGeometry x="3255.5" y="733" width="43" height="26" as="geometry" />
        </mxCell>
        <mxCell id="EaAxDWcDgyqi5feDdvT0-116" value="" style="endArrow=classic;html=1;rounded=0;fillColor=#f8cecc;strokeColor=#b85450;" parent="1" edge="1">
          <mxGeometry width="50" height="50" relative="1" as="geometry">
            <mxPoint x="3266.0000000000005" y="697.9999999999998" as="sourcePoint" />
            <mxPoint x="3266.0000000000005" y="637.9999999999998" as="targetPoint" />
          </mxGeometry>
        </mxCell>
        <mxCell id="EaAxDWcDgyqi5feDdvT0-117" value="parent" style="text;html=1;align=center;verticalAlign=middle;resizable=0;points=[];autosize=1;strokeColor=none;fillColor=none;" parent="1" vertex="1">
          <mxGeometry x="3251" y="654" width="52" height="26" as="geometry" />
        </mxCell>
        <mxCell id="EaAxDWcDgyqi5feDdvT0-118" value="70" style="rounded=0;whiteSpace=wrap;html=1;fillColor=#dae8fc;strokeColor=#6c8ebf;" parent="1" vertex="1">
          <mxGeometry x="1701" y="2123.5" width="80" height="62" as="geometry" />
        </mxCell>
        <mxCell id="EaAxDWcDgyqi5feDdvT0-119" value="56" style="rounded=0;whiteSpace=wrap;html=1;fillColor=#fff2cc;strokeColor=#d6b656;" parent="1" vertex="1">
          <mxGeometry x="1541" y="2036" width="80" height="62" as="geometry" />
        </mxCell>
        <mxCell id="EaAxDWcDgyqi5feDdvT0-120" value="30" style="rounded=0;whiteSpace=wrap;html=1;fillColor=#fff2cc;strokeColor=#d6b656;" parent="1" vertex="1">
          <mxGeometry x="1621" y="2036" width="80" height="62" as="geometry" />
        </mxCell>
        <mxCell id="EaAxDWcDgyqi5feDdvT0-121" value="25" style="rounded=0;whiteSpace=wrap;html=1;fillColor=#fff2cc;strokeColor=#d6b656;" parent="1" vertex="1">
          <mxGeometry x="1461" y="2123.5" width="80" height="62" as="geometry" />
        </mxCell>
        <mxCell id="EaAxDWcDgyqi5feDdvT0-122" value="15" style="rounded=0;whiteSpace=wrap;html=1;fillColor=#fff2cc;strokeColor=#d6b656;" parent="1" vertex="1">
          <mxGeometry x="1541" y="2123.5" width="80" height="62" as="geometry" />
        </mxCell>
        <mxCell id="EaAxDWcDgyqi5feDdvT0-123" value="10" style="rounded=0;whiteSpace=wrap;html=1;fillColor=#fff2cc;strokeColor=#d6b656;" parent="1" vertex="1">
          <mxGeometry x="1621" y="2123.5" width="80" height="62" as="geometry" />
        </mxCell>
        <mxCell id="EaAxDWcDgyqi5feDdvT0-124" value="" style="endArrow=classic;html=1;rounded=0;" parent="1" edge="1">
          <mxGeometry width="50" height="50" relative="1" as="geometry">
            <mxPoint x="1783.0000000000005" y="2265" as="sourcePoint" />
            <mxPoint x="1783.0000000000005" y="2205" as="targetPoint" />
          </mxGeometry>
        </mxCell>
        <mxCell id="EaAxDWcDgyqi5feDdvT0-125" value="size" style="text;html=1;align=center;verticalAlign=middle;resizable=0;points=[];autosize=1;strokeColor=none;fillColor=none;" parent="1" vertex="1">
          <mxGeometry x="1774" y="2221" width="39" height="26" as="geometry" />
        </mxCell>
        <mxCell id="EaAxDWcDgyqi5feDdvT0-126" value="12" style="rounded=0;whiteSpace=wrap;html=1;fillColor=#f8cecc;strokeColor=#b85450;" parent="1" vertex="1">
          <mxGeometry x="1581" y="1935" width="80" height="62" as="geometry" />
        </mxCell>
        <mxCell id="EaAxDWcDgyqi5feDdvT0-127" value="1.根位置跟最后一个位置交换，方便删除" style="text;html=1;align=center;verticalAlign=middle;resizable=0;points=[];autosize=1;strokeColor=#d79b00;fillColor=#ffe6cc;fontSize=20;" parent="1" vertex="1">
          <mxGeometry x="1665" y="1866" width="375" height="36" as="geometry" />
        </mxCell>
        <mxCell id="EaAxDWcDgyqi5feDdvT0-128" value="2.向下调整" style="text;html=1;align=center;verticalAlign=middle;resizable=0;points=[];autosize=1;strokeColor=#d79b00;fillColor=#ffe6cc;fontSize=20;" parent="1" vertex="1">
          <mxGeometry x="2237.5" y="1862" width="115" height="36" as="geometry" />
        </mxCell>
        <mxCell id="EaAxDWcDgyqi5feDdvT0-130" value="56" style="rounded=0;whiteSpace=wrap;html=1;fillColor=#dae8fc;strokeColor=#6c8ebf;" parent="1" vertex="1">
          <mxGeometry x="1989" y="1940" width="80" height="62" as="geometry" />
        </mxCell>
        <mxCell id="EaAxDWcDgyqi5feDdvT0-131" value="30" style="rounded=0;whiteSpace=wrap;html=1;fillColor=#fff2cc;strokeColor=#d6b656;" parent="1" vertex="1">
          <mxGeometry x="2028" y="2032" width="80" height="62" as="geometry" />
        </mxCell>
        <mxCell id="EaAxDWcDgyqi5feDdvT0-132" value="25" style="rounded=0;whiteSpace=wrap;html=1;fillColor=#fff2cc;strokeColor=#d6b656;" parent="1" vertex="1">
          <mxGeometry x="1868" y="2119.5" width="80" height="62" as="geometry" />
        </mxCell>
        <mxCell id="EaAxDWcDgyqi5feDdvT0-133" value="15" style="rounded=0;whiteSpace=wrap;html=1;fillColor=#fff2cc;strokeColor=#d6b656;" parent="1" vertex="1">
          <mxGeometry x="1948" y="2119.5" width="80" height="62" as="geometry" />
        </mxCell>
        <mxCell id="EaAxDWcDgyqi5feDdvT0-134" value="10" style="rounded=0;whiteSpace=wrap;html=1;fillColor=#fff2cc;strokeColor=#d6b656;" parent="1" vertex="1">
          <mxGeometry x="2028" y="2119.5" width="80" height="62" as="geometry" />
        </mxCell>
        <mxCell id="EaAxDWcDgyqi5feDdvT0-135" value="" style="endArrow=classic;html=1;rounded=0;" parent="1" edge="1">
          <mxGeometry width="50" height="50" relative="1" as="geometry">
            <mxPoint x="2110.0000000000005" y="2259" as="sourcePoint" />
            <mxPoint x="2110.0000000000005" y="2199" as="targetPoint" />
          </mxGeometry>
        </mxCell>
        <mxCell id="EaAxDWcDgyqi5feDdvT0-136" value="size" style="text;html=1;align=center;verticalAlign=middle;resizable=0;points=[];autosize=1;strokeColor=none;fillColor=none;" parent="1" vertex="1">
          <mxGeometry x="2101" y="2215" width="39" height="26" as="geometry" />
        </mxCell>
        <mxCell id="EaAxDWcDgyqi5feDdvT0-137" value="12" style="rounded=0;whiteSpace=wrap;html=1;fillColor=#f8cecc;strokeColor=#b85450;" parent="1" vertex="1">
          <mxGeometry x="1948" y="2032" width="80" height="62" as="geometry" />
        </mxCell>
        <mxCell id="EaAxDWcDgyqi5feDdvT0-138" value="56" style="rounded=0;whiteSpace=wrap;html=1;fillColor=#fff2cc;strokeColor=#d6b656;" parent="1" vertex="1">
          <mxGeometry x="2292" y="1940" width="80" height="62" as="geometry" />
        </mxCell>
        <mxCell id="EaAxDWcDgyqi5feDdvT0-139" value="30" style="rounded=0;whiteSpace=wrap;html=1;fillColor=#fff2cc;strokeColor=#d6b656;" parent="1" vertex="1">
          <mxGeometry x="2331" y="2032" width="80" height="62" as="geometry" />
        </mxCell>
        <mxCell id="EaAxDWcDgyqi5feDdvT0-140" value="25" style="rounded=0;whiteSpace=wrap;html=1;fillColor=#dae8fc;strokeColor=#6c8ebf;" parent="1" vertex="1">
          <mxGeometry x="2251" y="2032" width="80" height="62" as="geometry" />
        </mxCell>
        <mxCell id="EaAxDWcDgyqi5feDdvT0-141" value="15" style="rounded=0;whiteSpace=wrap;html=1;fillColor=#fff2cc;strokeColor=#d6b656;" parent="1" vertex="1">
          <mxGeometry x="2251" y="2119.5" width="80" height="62" as="geometry" />
        </mxCell>
        <mxCell id="EaAxDWcDgyqi5feDdvT0-142" value="10" style="rounded=0;whiteSpace=wrap;html=1;fillColor=#fff2cc;strokeColor=#d6b656;" parent="1" vertex="1">
          <mxGeometry x="2331" y="2119.5" width="80" height="62" as="geometry" />
        </mxCell>
        <mxCell id="EaAxDWcDgyqi5feDdvT0-143" value="" style="endArrow=classic;html=1;rounded=0;" parent="1" edge="1">
          <mxGeometry width="50" height="50" relative="1" as="geometry">
            <mxPoint x="2413.0000000000005" y="2259" as="sourcePoint" />
            <mxPoint x="2413.0000000000005" y="2199" as="targetPoint" />
          </mxGeometry>
        </mxCell>
        <mxCell id="EaAxDWcDgyqi5feDdvT0-144" value="size" style="text;html=1;align=center;verticalAlign=middle;resizable=0;points=[];autosize=1;strokeColor=none;fillColor=none;" parent="1" vertex="1">
          <mxGeometry x="2404" y="2215" width="39" height="26" as="geometry" />
        </mxCell>
        <mxCell id="EaAxDWcDgyqi5feDdvT0-145" value="12" style="rounded=0;whiteSpace=wrap;html=1;fillColor=#f8cecc;strokeColor=#b85450;" parent="1" vertex="1">
          <mxGeometry x="2171" y="2119.5" width="80" height="62" as="geometry" />
        </mxCell>
        <mxCell id="EaAxDWcDgyqi5feDdvT0-146" value="56" style="rounded=0;whiteSpace=wrap;html=1;fillColor=#fff2cc;strokeColor=#d6b656;" parent="1" vertex="1">
          <mxGeometry x="2613" y="1945" width="80" height="62" as="geometry" />
        </mxCell>
        <mxCell id="EaAxDWcDgyqi5feDdvT0-147" value="30" style="rounded=0;whiteSpace=wrap;html=1;fillColor=#fff2cc;strokeColor=#d6b656;" parent="1" vertex="1">
          <mxGeometry x="2652" y="2037" width="80" height="62" as="geometry" />
        </mxCell>
        <mxCell id="EaAxDWcDgyqi5feDdvT0-148" value="25" style="rounded=0;whiteSpace=wrap;html=1;fillColor=#fff2cc;strokeColor=#d6b656;" parent="1" vertex="1">
          <mxGeometry x="2572" y="2037" width="80" height="62" as="geometry" />
        </mxCell>
        <mxCell id="EaAxDWcDgyqi5feDdvT0-149" value="15" style="rounded=0;whiteSpace=wrap;html=1;fillColor=#fff2cc;strokeColor=#d6b656;" parent="1" vertex="1">
          <mxGeometry x="2572" y="2124.5" width="80" height="62" as="geometry" />
        </mxCell>
        <mxCell id="EaAxDWcDgyqi5feDdvT0-150" value="10" style="rounded=0;whiteSpace=wrap;html=1;fillColor=#fff2cc;strokeColor=#d6b656;" parent="1" vertex="1">
          <mxGeometry x="2652" y="2124.5" width="80" height="62" as="geometry" />
        </mxCell>
        <mxCell id="EaAxDWcDgyqi5feDdvT0-151" value="" style="endArrow=classic;html=1;rounded=0;" parent="1" edge="1">
          <mxGeometry width="50" height="50" relative="1" as="geometry">
            <mxPoint x="2734.0000000000005" y="2264" as="sourcePoint" />
            <mxPoint x="2734.0000000000005" y="2204" as="targetPoint" />
          </mxGeometry>
        </mxCell>
        <mxCell id="EaAxDWcDgyqi5feDdvT0-152" value="size" style="text;html=1;align=center;verticalAlign=middle;resizable=0;points=[];autosize=1;strokeColor=none;fillColor=none;" parent="1" vertex="1">
          <mxGeometry x="2725" y="2220" width="39" height="26" as="geometry" />
        </mxCell>
        <mxCell id="EaAxDWcDgyqi5feDdvT0-153" value="12" style="rounded=0;whiteSpace=wrap;html=1;fillColor=#fff2cc;strokeColor=#d6b656;" parent="1" vertex="1">
          <mxGeometry x="2492" y="2124.5" width="80" height="62" as="geometry" />
        </mxCell>
        <mxCell id="EaAxDWcDgyqi5feDdvT0-154" style="rounded=0;orthogonalLoop=1;jettySize=auto;html=1;exitX=0;exitY=1;exitDx=0;exitDy=0;entryX=1;entryY=0;entryDx=0;entryDy=0;" parent="1" source="EaAxDWcDgyqi5feDdvT0-156" target="EaAxDWcDgyqi5feDdvT0-162" edge="1">
          <mxGeometry relative="1" as="geometry" />
        </mxCell>
        <mxCell id="EaAxDWcDgyqi5feDdvT0-155" style="edgeStyle=none;rounded=0;orthogonalLoop=1;jettySize=auto;html=1;exitX=1;exitY=1;exitDx=0;exitDy=0;" parent="1" source="EaAxDWcDgyqi5feDdvT0-156" target="EaAxDWcDgyqi5feDdvT0-159" edge="1">
          <mxGeometry relative="1" as="geometry" />
        </mxCell>
        <mxCell id="EaAxDWcDgyqi5feDdvT0-156" value="56" style="ellipse;whiteSpace=wrap;html=1;aspect=fixed;" parent="1" vertex="1">
          <mxGeometry x="2978" y="1969" width="47" height="47" as="geometry" />
        </mxCell>
        <mxCell id="EaAxDWcDgyqi5feDdvT0-157" style="edgeStyle=none;rounded=0;orthogonalLoop=1;jettySize=auto;html=1;exitX=0;exitY=1;exitDx=0;exitDy=0;entryX=1;entryY=0;entryDx=0;entryDy=0;" parent="1" source="EaAxDWcDgyqi5feDdvT0-159" target="EaAxDWcDgyqi5feDdvT0-165" edge="1">
          <mxGeometry relative="1" as="geometry" />
        </mxCell>
        <mxCell id="EaAxDWcDgyqi5feDdvT0-159" value="30" style="ellipse;whiteSpace=wrap;html=1;aspect=fixed;" parent="1" vertex="1">
          <mxGeometry x="3053" y="2042" width="47" height="47" as="geometry" />
        </mxCell>
        <mxCell id="EaAxDWcDgyqi5feDdvT0-160" style="edgeStyle=none;rounded=0;orthogonalLoop=1;jettySize=auto;html=1;exitX=0;exitY=1;exitDx=0;exitDy=0;entryX=1;entryY=0;entryDx=0;entryDy=0;" parent="1" source="EaAxDWcDgyqi5feDdvT0-162" target="EaAxDWcDgyqi5feDdvT0-163" edge="1">
          <mxGeometry relative="1" as="geometry" />
        </mxCell>
        <mxCell id="EaAxDWcDgyqi5feDdvT0-161" style="edgeStyle=none;rounded=0;orthogonalLoop=1;jettySize=auto;html=1;exitX=1;exitY=1;exitDx=0;exitDy=0;entryX=0;entryY=0;entryDx=0;entryDy=0;" parent="1" source="EaAxDWcDgyqi5feDdvT0-162" target="EaAxDWcDgyqi5feDdvT0-164" edge="1">
          <mxGeometry relative="1" as="geometry" />
        </mxCell>
        <mxCell id="EaAxDWcDgyqi5feDdvT0-162" value="25" style="ellipse;whiteSpace=wrap;html=1;aspect=fixed;" parent="1" vertex="1">
          <mxGeometry x="2901" y="2042" width="47" height="47" as="geometry" />
        </mxCell>
        <mxCell id="EaAxDWcDgyqi5feDdvT0-163" value="12" style="ellipse;whiteSpace=wrap;html=1;aspect=fixed;" parent="1" vertex="1">
          <mxGeometry x="2843" y="2127" width="47" height="47" as="geometry" />
        </mxCell>
        <mxCell id="EaAxDWcDgyqi5feDdvT0-164" value="15" style="ellipse;whiteSpace=wrap;html=1;aspect=fixed;" parent="1" vertex="1">
          <mxGeometry x="2945" y="2129" width="47" height="47" as="geometry" />
        </mxCell>
        <mxCell id="EaAxDWcDgyqi5feDdvT0-165" value="10" style="ellipse;whiteSpace=wrap;html=1;aspect=fixed;" parent="1" vertex="1">
          <mxGeometry x="3012" y="2129" width="47" height="47" as="geometry" />
        </mxCell>
        <mxCell id="EaAxDWcDgyqi5feDdvT0-167" value="" style="endArrow=classic;html=1;rounded=0;fontSize=20;" parent="1" edge="1">
          <mxGeometry width="50" height="50" relative="1" as="geometry">
            <mxPoint x="1580" y="1844.5" as="sourcePoint" />
            <mxPoint x="1578" y="1923.5" as="targetPoint" />
          </mxGeometry>
        </mxCell>
        <mxCell id="EaAxDWcDgyqi5feDdvT0-169" value="parent" style="text;html=1;align=center;verticalAlign=middle;resizable=0;points=[];autosize=1;strokeColor=none;fillColor=none;fontSize=12;" parent="1" vertex="1">
          <mxGeometry x="1581" y="1871" width="52" height="26" as="geometry" />
        </mxCell>
        <mxCell id="EaAxDWcDgyqi5feDdvT0-170" value="" style="endArrow=classic;html=1;rounded=0;fontSize=20;" parent="1" edge="1">
          <mxGeometry width="50" height="50" relative="1" as="geometry">
            <mxPoint x="1543" y="1952" as="sourcePoint" />
            <mxPoint x="1541" y="2031" as="targetPoint" />
          </mxGeometry>
        </mxCell>
        <mxCell id="EaAxDWcDgyqi5feDdvT0-171" value="child" style="text;html=1;align=center;verticalAlign=middle;resizable=0;points=[];autosize=1;strokeColor=none;fillColor=none;fontSize=12;" parent="1" vertex="1">
          <mxGeometry x="1547" y="1978" width="43" height="26" as="geometry" />
        </mxCell>
        <mxCell id="EaAxDWcDgyqi5feDdvT0-172" value="" style="endArrow=classic;html=1;rounded=0;fontSize=20;" parent="1" edge="1">
          <mxGeometry width="50" height="50" relative="1" as="geometry">
            <mxPoint x="2173" y="2026" as="sourcePoint" />
            <mxPoint x="2171" y="2105" as="targetPoint" />
          </mxGeometry>
        </mxCell>
        <mxCell id="EaAxDWcDgyqi5feDdvT0-173" value="parent" style="text;html=1;align=center;verticalAlign=middle;resizable=0;points=[];autosize=1;strokeColor=none;fillColor=none;fontSize=12;" parent="1" vertex="1">
          <mxGeometry x="2171" y="2060.5" width="52" height="26" as="geometry" />
        </mxCell>
        <mxCell id="EaAxDWcDgyqi5feDdvT0-174" value="" style="endArrow=classic;html=1;rounded=0;fontSize=20;" parent="1" edge="1">
          <mxGeometry width="50" height="50" relative="1" as="geometry">
            <mxPoint x="2166" y="2269.75" as="sourcePoint" />
            <mxPoint x="2166" y="2196.25" as="targetPoint" />
          </mxGeometry>
        </mxCell>
        <mxCell id="EaAxDWcDgyqi5feDdvT0-175" value="child" style="text;html=1;align=center;verticalAlign=middle;resizable=0;points=[];autosize=1;strokeColor=none;fillColor=none;fontSize=12;" parent="1" vertex="1">
          <mxGeometry x="2162" y="2220" width="43" height="26" as="geometry" />
        </mxCell>
        <mxCell id="OEsS5qi2aNCGJDPdCa3z-1" style="rounded=0;orthogonalLoop=1;jettySize=auto;html=1;exitX=0;exitY=1;exitDx=0;exitDy=0;entryX=1;entryY=0;entryDx=0;entryDy=0;" parent="1" source="OEsS5qi2aNCGJDPdCa3z-3" target="OEsS5qi2aNCGJDPdCa3z-8" edge="1">
          <mxGeometry relative="1" as="geometry" />
        </mxCell>
        <mxCell id="OEsS5qi2aNCGJDPdCa3z-2" style="edgeStyle=none;rounded=0;orthogonalLoop=1;jettySize=auto;html=1;exitX=1;exitY=1;exitDx=0;exitDy=0;" parent="1" source="OEsS5qi2aNCGJDPdCa3z-3" target="OEsS5qi2aNCGJDPdCa3z-5" edge="1">
          <mxGeometry relative="1" as="geometry">
            <Array as="points">
              <mxPoint x="245" y="1090" />
            </Array>
          </mxGeometry>
        </mxCell>
        <mxCell id="OEsS5qi2aNCGJDPdCa3z-40" style="edgeStyle=none;rounded=0;orthogonalLoop=1;jettySize=auto;html=1;exitX=0.5;exitY=1;exitDx=0;exitDy=0;fillColor=#f8cecc;strokeColor=#b85450;" parent="1" source="OEsS5qi2aNCGJDPdCa3z-3" target="OEsS5qi2aNCGJDPdCa3z-11" edge="1">
          <mxGeometry relative="1" as="geometry" />
        </mxCell>
        <mxCell id="OEsS5qi2aNCGJDPdCa3z-3" value="" style="ellipse;whiteSpace=wrap;html=1;aspect=fixed;fillColor=#dae8fc;strokeColor=#6c8ebf;" parent="1" vertex="1">
          <mxGeometry x="185" y="1029" width="46" height="46" as="geometry" />
        </mxCell>
        <mxCell id="OEsS5qi2aNCGJDPdCa3z-4" style="edgeStyle=none;rounded=0;orthogonalLoop=1;jettySize=auto;html=1;exitX=0;exitY=1;exitDx=0;exitDy=0;entryX=1;entryY=0;entryDx=0;entryDy=0;" parent="1" source="OEsS5qi2aNCGJDPdCa3z-5" target="OEsS5qi2aNCGJDPdCa3z-11" edge="1">
          <mxGeometry relative="1" as="geometry" />
        </mxCell>
        <mxCell id="OEsS5qi2aNCGJDPdCa3z-13" style="rounded=0;orthogonalLoop=1;jettySize=auto;html=1;exitX=1;exitY=1;exitDx=0;exitDy=0;entryX=0;entryY=0;entryDx=0;entryDy=0;" parent="1" source="OEsS5qi2aNCGJDPdCa3z-5" target="OEsS5qi2aNCGJDPdCa3z-12" edge="1">
          <mxGeometry relative="1" as="geometry" />
        </mxCell>
        <mxCell id="OEsS5qi2aNCGJDPdCa3z-5" value="" style="ellipse;whiteSpace=wrap;html=1;aspect=fixed;fillColor=#dae8fc;strokeColor=#6c8ebf;" parent="1" vertex="1">
          <mxGeometry x="259" y="1102" width="47" height="47" as="geometry" />
        </mxCell>
        <mxCell id="OEsS5qi2aNCGJDPdCa3z-6" style="edgeStyle=none;rounded=0;orthogonalLoop=1;jettySize=auto;html=1;exitX=0;exitY=1;exitDx=0;exitDy=0;entryX=1;entryY=0;entryDx=0;entryDy=0;" parent="1" source="OEsS5qi2aNCGJDPdCa3z-8" target="OEsS5qi2aNCGJDPdCa3z-9" edge="1">
          <mxGeometry relative="1" as="geometry" />
        </mxCell>
        <mxCell id="OEsS5qi2aNCGJDPdCa3z-7" style="edgeStyle=none;rounded=0;orthogonalLoop=1;jettySize=auto;html=1;exitX=1;exitY=1;exitDx=0;exitDy=0;entryX=0;entryY=0;entryDx=0;entryDy=0;" parent="1" source="OEsS5qi2aNCGJDPdCa3z-8" target="OEsS5qi2aNCGJDPdCa3z-10" edge="1">
          <mxGeometry relative="1" as="geometry" />
        </mxCell>
        <mxCell id="OEsS5qi2aNCGJDPdCa3z-41" style="edgeStyle=none;rounded=0;orthogonalLoop=1;jettySize=auto;html=1;exitX=1;exitY=0.5;exitDx=0;exitDy=0;fillColor=#f8cecc;strokeColor=#b85450;" parent="1" source="OEsS5qi2aNCGJDPdCa3z-8" target="OEsS5qi2aNCGJDPdCa3z-11" edge="1">
          <mxGeometry relative="1" as="geometry" />
        </mxCell>
        <mxCell id="OEsS5qi2aNCGJDPdCa3z-8" value="" style="ellipse;whiteSpace=wrap;html=1;aspect=fixed;fillColor=#dae8fc;strokeColor=#6c8ebf;" parent="1" vertex="1">
          <mxGeometry x="107" y="1102" width="47" height="47" as="geometry" />
        </mxCell>
        <mxCell id="OEsS5qi2aNCGJDPdCa3z-9" value="" style="ellipse;whiteSpace=wrap;html=1;aspect=fixed;fillColor=#dae8fc;strokeColor=#6c8ebf;" parent="1" vertex="1">
          <mxGeometry x="48" y="1189" width="47" height="47" as="geometry" />
        </mxCell>
        <mxCell id="OEsS5qi2aNCGJDPdCa3z-10" value="" style="ellipse;whiteSpace=wrap;html=1;aspect=fixed;fillColor=#dae8fc;strokeColor=#6c8ebf;" parent="1" vertex="1">
          <mxGeometry x="151" y="1189" width="47" height="47" as="geometry" />
        </mxCell>
        <mxCell id="OEsS5qi2aNCGJDPdCa3z-11" value="" style="ellipse;whiteSpace=wrap;html=1;aspect=fixed;fillColor=#dae8fc;strokeColor=#6c8ebf;" parent="1" vertex="1">
          <mxGeometry x="218" y="1189" width="47" height="47" as="geometry" />
        </mxCell>
        <mxCell id="OEsS5qi2aNCGJDPdCa3z-12" value="" style="ellipse;whiteSpace=wrap;html=1;aspect=fixed;fillColor=#dae8fc;strokeColor=#6c8ebf;" parent="1" vertex="1">
          <mxGeometry x="315" y="1187" width="47" height="47" as="geometry" />
        </mxCell>
        <mxCell id="OEsS5qi2aNCGJDPdCa3z-31" style="edgeStyle=none;rounded=0;orthogonalLoop=1;jettySize=auto;html=1;exitX=1;exitY=0.5;exitDx=0;exitDy=0;entryX=0;entryY=0.5;entryDx=0;entryDy=0;" parent="1" source="OEsS5qi2aNCGJDPdCa3z-14" target="OEsS5qi2aNCGJDPdCa3z-27" edge="1">
          <mxGeometry relative="1" as="geometry" />
        </mxCell>
        <mxCell id="OEsS5qi2aNCGJDPdCa3z-14" value="" style="ellipse;whiteSpace=wrap;html=1;aspect=fixed;fillColor=#dae8fc;strokeColor=#6c8ebf;" parent="1" vertex="1">
          <mxGeometry x="25.5" y="1415" width="46" height="46" as="geometry" />
        </mxCell>
        <mxCell id="OEsS5qi2aNCGJDPdCa3z-32" style="edgeStyle=none;rounded=0;orthogonalLoop=1;jettySize=auto;html=1;exitX=1;exitY=0.5;exitDx=0;exitDy=0;" parent="1" source="OEsS5qi2aNCGJDPdCa3z-27" target="OEsS5qi2aNCGJDPdCa3z-28" edge="1">
          <mxGeometry relative="1" as="geometry" />
        </mxCell>
        <mxCell id="OEsS5qi2aNCGJDPdCa3z-27" value="" style="ellipse;whiteSpace=wrap;html=1;aspect=fixed;fillColor=#dae8fc;strokeColor=#6c8ebf;" parent="1" vertex="1">
          <mxGeometry x="126.5" y="1415" width="46" height="46" as="geometry" />
        </mxCell>
        <mxCell id="OEsS5qi2aNCGJDPdCa3z-33" style="edgeStyle=none;rounded=0;orthogonalLoop=1;jettySize=auto;html=1;exitX=1;exitY=0.5;exitDx=0;exitDy=0;" parent="1" source="OEsS5qi2aNCGJDPdCa3z-28" target="OEsS5qi2aNCGJDPdCa3z-29" edge="1">
          <mxGeometry relative="1" as="geometry" />
        </mxCell>
        <mxCell id="OEsS5qi2aNCGJDPdCa3z-28" value="" style="ellipse;whiteSpace=wrap;html=1;aspect=fixed;fillColor=#dae8fc;strokeColor=#6c8ebf;" parent="1" vertex="1">
          <mxGeometry x="222.5" y="1415" width="46" height="46" as="geometry" />
        </mxCell>
        <mxCell id="OEsS5qi2aNCGJDPdCa3z-34" style="edgeStyle=none;rounded=0;orthogonalLoop=1;jettySize=auto;html=1;exitX=1;exitY=0.5;exitDx=0;exitDy=0;" parent="1" source="OEsS5qi2aNCGJDPdCa3z-29" target="OEsS5qi2aNCGJDPdCa3z-30" edge="1">
          <mxGeometry relative="1" as="geometry" />
        </mxCell>
        <mxCell id="OEsS5qi2aNCGJDPdCa3z-29" value="" style="ellipse;whiteSpace=wrap;html=1;aspect=fixed;fillColor=#dae8fc;strokeColor=#6c8ebf;" parent="1" vertex="1">
          <mxGeometry x="315.5" y="1415" width="46" height="46" as="geometry" />
        </mxCell>
        <mxCell id="OEsS5qi2aNCGJDPdCa3z-30" value="" style="ellipse;whiteSpace=wrap;html=1;aspect=fixed;fillColor=#dae8fc;strokeColor=#6c8ebf;" parent="1" vertex="1">
          <mxGeometry x="411.5" y="1415" width="46" height="46" as="geometry" />
        </mxCell>
        <mxCell id="OEsS5qi2aNCGJDPdCa3z-42" style="rounded=0;orthogonalLoop=1;jettySize=auto;html=1;exitX=0;exitY=1;exitDx=0;exitDy=0;entryX=1;entryY=0;entryDx=0;entryDy=0;fontSize=21;" parent="1" source="OEsS5qi2aNCGJDPdCa3z-45" target="OEsS5qi2aNCGJDPdCa3z-52" edge="1">
          <mxGeometry relative="1" as="geometry" />
        </mxCell>
        <mxCell id="OEsS5qi2aNCGJDPdCa3z-67" style="edgeStyle=none;rounded=0;orthogonalLoop=1;jettySize=auto;html=1;exitX=1;exitY=1;exitDx=0;exitDy=0;entryX=0;entryY=0;entryDx=0;entryDy=0;fontSize=21;" parent="1" source="OEsS5qi2aNCGJDPdCa3z-45" target="OEsS5qi2aNCGJDPdCa3z-48" edge="1">
          <mxGeometry relative="1" as="geometry" />
        </mxCell>
        <mxCell id="OEsS5qi2aNCGJDPdCa3z-45" value="0" style="ellipse;whiteSpace=wrap;html=1;aspect=fixed;fillColor=#dae8fc;strokeColor=#6c8ebf;fontSize=21;" parent="1" vertex="1">
          <mxGeometry x="814" y="1020" width="46" height="46" as="geometry" />
        </mxCell>
        <mxCell id="OEsS5qi2aNCGJDPdCa3z-68" style="edgeStyle=none;rounded=0;orthogonalLoop=1;jettySize=auto;html=1;exitX=0;exitY=1;exitDx=0;exitDy=0;entryX=0.5;entryY=0;entryDx=0;entryDy=0;fontSize=21;" parent="1" source="OEsS5qi2aNCGJDPdCa3z-48" target="OEsS5qi2aNCGJDPdCa3z-55" edge="1">
          <mxGeometry relative="1" as="geometry" />
        </mxCell>
        <mxCell id="OEsS5qi2aNCGJDPdCa3z-69" style="edgeStyle=none;rounded=0;orthogonalLoop=1;jettySize=auto;html=1;exitX=1;exitY=1;exitDx=0;exitDy=0;entryX=0.5;entryY=0;entryDx=0;entryDy=0;fontSize=21;" parent="1" source="OEsS5qi2aNCGJDPdCa3z-48" target="OEsS5qi2aNCGJDPdCa3z-56" edge="1">
          <mxGeometry relative="1" as="geometry" />
        </mxCell>
        <mxCell id="OEsS5qi2aNCGJDPdCa3z-48" value="2" style="ellipse;whiteSpace=wrap;html=1;aspect=fixed;fillColor=#dae8fc;strokeColor=#6c8ebf;fontSize=21;" parent="1" vertex="1">
          <mxGeometry x="927" y="1091" width="47" height="47" as="geometry" />
        </mxCell>
        <mxCell id="OEsS5qi2aNCGJDPdCa3z-49" style="edgeStyle=none;rounded=0;orthogonalLoop=1;jettySize=auto;html=1;exitX=0;exitY=1;exitDx=0;exitDy=0;entryX=0.5;entryY=0;entryDx=0;entryDy=0;fontSize=21;" parent="1" source="OEsS5qi2aNCGJDPdCa3z-52" target="OEsS5qi2aNCGJDPdCa3z-53" edge="1">
          <mxGeometry relative="1" as="geometry" />
        </mxCell>
        <mxCell id="OEsS5qi2aNCGJDPdCa3z-50" style="edgeStyle=none;rounded=0;orthogonalLoop=1;jettySize=auto;html=1;exitX=1;exitY=1;exitDx=0;exitDy=0;entryX=0.5;entryY=0;entryDx=0;entryDy=0;fontSize=21;" parent="1" source="OEsS5qi2aNCGJDPdCa3z-52" target="OEsS5qi2aNCGJDPdCa3z-54" edge="1">
          <mxGeometry relative="1" as="geometry" />
        </mxCell>
        <mxCell id="OEsS5qi2aNCGJDPdCa3z-52" value="1" style="ellipse;whiteSpace=wrap;html=1;aspect=fixed;fillColor=#dae8fc;strokeColor=#6c8ebf;fontSize=21;" parent="1" vertex="1">
          <mxGeometry x="707" y="1089" width="47" height="47" as="geometry" />
        </mxCell>
        <mxCell id="OEsS5qi2aNCGJDPdCa3z-53" value="3" style="ellipse;whiteSpace=wrap;html=1;aspect=fixed;fillColor=#dae8fc;strokeColor=#6c8ebf;fontSize=21;" parent="1" vertex="1">
          <mxGeometry x="653" y="1171" width="47" height="47" as="geometry" />
        </mxCell>
        <mxCell id="OEsS5qi2aNCGJDPdCa3z-54" value="4" style="ellipse;whiteSpace=wrap;html=1;aspect=fixed;fillColor=#dae8fc;strokeColor=#6c8ebf;fontSize=21;" parent="1" vertex="1">
          <mxGeometry x="761" y="1171" width="47" height="47" as="geometry" />
        </mxCell>
        <mxCell id="OEsS5qi2aNCGJDPdCa3z-55" value="5" style="ellipse;whiteSpace=wrap;html=1;aspect=fixed;fillColor=#dae8fc;strokeColor=#6c8ebf;fontSize=21;" parent="1" vertex="1">
          <mxGeometry x="875" y="1171" width="47" height="47" as="geometry" />
        </mxCell>
        <mxCell id="OEsS5qi2aNCGJDPdCa3z-56" value="6" style="ellipse;whiteSpace=wrap;html=1;aspect=fixed;fillColor=#dae8fc;strokeColor=#6c8ebf;fontSize=21;" parent="1" vertex="1">
          <mxGeometry x="982" y="1171" width="47" height="47" as="geometry" />
        </mxCell>
        <mxCell id="OEsS5qi2aNCGJDPdCa3z-77" value="第一层：2^0" style="text;html=1;align=center;verticalAlign=middle;resizable=0;points=[];autosize=1;strokeColor=none;fillColor=none;fontSize=21;" parent="1" vertex="1">
          <mxGeometry x="1100" y="1033.5" width="135" height="37" as="geometry" />
        </mxCell>
        <mxCell id="OEsS5qi2aNCGJDPdCa3z-78" value="第一层：2^1" style="text;html=1;align=center;verticalAlign=middle;resizable=0;points=[];autosize=1;strokeColor=none;fillColor=none;fontSize=21;" parent="1" vertex="1">
          <mxGeometry x="1105" y="1112" width="135" height="37" as="geometry" />
        </mxCell>
        <mxCell id="OEsS5qi2aNCGJDPdCa3z-79" value="个数" style="text;html=1;align=center;verticalAlign=middle;resizable=0;points=[];autosize=1;strokeColor=none;fillColor=none;fontSize=21;" parent="1" vertex="1">
          <mxGeometry x="1138" y="966" width="60" height="37" as="geometry" />
        </mxCell>
        <mxCell id="OEsS5qi2aNCGJDPdCa3z-80" value="第二层：2^2" style="text;html=1;align=center;verticalAlign=middle;resizable=0;points=[];autosize=1;strokeColor=none;fillColor=none;fontSize=21;" parent="1" vertex="1">
          <mxGeometry x="1105" y="1187" width="135" height="37" as="geometry" />
        </mxCell>
        <mxCell id="OEsS5qi2aNCGJDPdCa3z-81" style="rounded=0;orthogonalLoop=1;jettySize=auto;html=1;exitX=0;exitY=1;exitDx=0;exitDy=0;entryX=1;entryY=0;entryDx=0;entryDy=0;fillColor=#ffe6cc;strokeColor=#d79b00;fontSize=15;" parent="1" source="OEsS5qi2aNCGJDPdCa3z-83" target="OEsS5qi2aNCGJDPdCa3z-88" edge="1">
          <mxGeometry relative="1" as="geometry" />
        </mxCell>
        <mxCell id="OEsS5qi2aNCGJDPdCa3z-82" style="edgeStyle=none;rounded=0;orthogonalLoop=1;jettySize=auto;html=1;exitX=1;exitY=1;exitDx=0;exitDy=0;fillColor=#ffe6cc;strokeColor=#d79b00;fontSize=15;" parent="1" source="OEsS5qi2aNCGJDPdCa3z-83" target="OEsS5qi2aNCGJDPdCa3z-85" edge="1">
          <mxGeometry relative="1" as="geometry" />
        </mxCell>
        <mxCell id="OEsS5qi2aNCGJDPdCa3z-83" value="70" style="ellipse;whiteSpace=wrap;html=1;aspect=fixed;fillColor=#ffe6cc;strokeColor=#d79b00;fontSize=15;" parent="1" vertex="1">
          <mxGeometry x="147" y="1689" width="47" height="47" as="geometry" />
        </mxCell>
        <mxCell id="OEsS5qi2aNCGJDPdCa3z-84" style="edgeStyle=none;rounded=0;orthogonalLoop=1;jettySize=auto;html=1;exitX=0;exitY=1;exitDx=0;exitDy=0;entryX=1;entryY=0;entryDx=0;entryDy=0;fillColor=#ffe6cc;strokeColor=#d79b00;fontSize=15;" parent="1" source="OEsS5qi2aNCGJDPdCa3z-85" target="OEsS5qi2aNCGJDPdCa3z-91" edge="1">
          <mxGeometry relative="1" as="geometry" />
        </mxCell>
        <mxCell id="OEsS5qi2aNCGJDPdCa3z-103" style="edgeStyle=none;rounded=0;orthogonalLoop=1;jettySize=auto;html=1;exitX=1;exitY=1;exitDx=0;exitDy=0;entryX=0;entryY=0;entryDx=0;entryDy=0;fontSize=15;fillColor=#ffe6cc;strokeColor=#d79b00;" parent="1" source="OEsS5qi2aNCGJDPdCa3z-85" target="OEsS5qi2aNCGJDPdCa3z-100" edge="1">
          <mxGeometry relative="1" as="geometry" />
        </mxCell>
        <mxCell id="OEsS5qi2aNCGJDPdCa3z-85" value="65" style="ellipse;whiteSpace=wrap;html=1;aspect=fixed;fillColor=#ffe6cc;strokeColor=#d79b00;fontSize=15;" parent="1" vertex="1">
          <mxGeometry x="222" y="1762" width="47" height="47" as="geometry" />
        </mxCell>
        <mxCell id="OEsS5qi2aNCGJDPdCa3z-86" style="edgeStyle=none;rounded=0;orthogonalLoop=1;jettySize=auto;html=1;exitX=0;exitY=1;exitDx=0;exitDy=0;entryX=1;entryY=0;entryDx=0;entryDy=0;fillColor=#ffe6cc;strokeColor=#d79b00;fontSize=15;" parent="1" source="OEsS5qi2aNCGJDPdCa3z-88" target="OEsS5qi2aNCGJDPdCa3z-89" edge="1">
          <mxGeometry relative="1" as="geometry" />
        </mxCell>
        <mxCell id="OEsS5qi2aNCGJDPdCa3z-87" style="edgeStyle=none;rounded=0;orthogonalLoop=1;jettySize=auto;html=1;exitX=1;exitY=1;exitDx=0;exitDy=0;entryX=0;entryY=0;entryDx=0;entryDy=0;fillColor=#ffe6cc;strokeColor=#d79b00;fontSize=15;" parent="1" source="OEsS5qi2aNCGJDPdCa3z-88" target="OEsS5qi2aNCGJDPdCa3z-90" edge="1">
          <mxGeometry relative="1" as="geometry" />
        </mxCell>
        <mxCell id="OEsS5qi2aNCGJDPdCa3z-88" value="50" style="ellipse;whiteSpace=wrap;html=1;aspect=fixed;fillColor=#ffe6cc;strokeColor=#d79b00;fontSize=15;" parent="1" vertex="1">
          <mxGeometry x="70" y="1762" width="47" height="47" as="geometry" />
        </mxCell>
        <mxCell id="OEsS5qi2aNCGJDPdCa3z-89" value="30" style="ellipse;whiteSpace=wrap;html=1;aspect=fixed;fillColor=#ffe6cc;strokeColor=#d79b00;fontSize=15;" parent="1" vertex="1">
          <mxGeometry x="12" y="1847" width="47" height="47" as="geometry" />
        </mxCell>
        <mxCell id="OEsS5qi2aNCGJDPdCa3z-90" value="20" style="ellipse;whiteSpace=wrap;html=1;aspect=fixed;fillColor=#ffe6cc;strokeColor=#d79b00;fontSize=15;" parent="1" vertex="1">
          <mxGeometry x="114" y="1849" width="47" height="47" as="geometry" />
        </mxCell>
        <mxCell id="OEsS5qi2aNCGJDPdCa3z-91" value="40" style="ellipse;whiteSpace=wrap;html=1;aspect=fixed;fillColor=#ffe6cc;strokeColor=#d79b00;fontSize=15;" parent="1" vertex="1">
          <mxGeometry x="181" y="1849" width="47" height="47" as="geometry" />
        </mxCell>
        <mxCell id="OEsS5qi2aNCGJDPdCa3z-92" value="70" style="rounded=0;whiteSpace=wrap;html=1;fillColor=#fff2cc;strokeColor=#d6b656;" parent="1" vertex="1">
          <mxGeometry x="435" y="1754.5" width="80" height="62" as="geometry" />
        </mxCell>
        <mxCell id="OEsS5qi2aNCGJDPdCa3z-93" value="50" style="rounded=0;whiteSpace=wrap;html=1;fillColor=#fff2cc;strokeColor=#d6b656;" parent="1" vertex="1">
          <mxGeometry x="515" y="1754.5" width="80" height="62" as="geometry" />
        </mxCell>
        <mxCell id="OEsS5qi2aNCGJDPdCa3z-94" value="65" style="rounded=0;whiteSpace=wrap;html=1;fillColor=#fff2cc;strokeColor=#d6b656;" parent="1" vertex="1">
          <mxGeometry x="595" y="1754.5" width="80" height="62" as="geometry" />
        </mxCell>
        <mxCell id="OEsS5qi2aNCGJDPdCa3z-95" value="30" style="rounded=0;whiteSpace=wrap;html=1;fillColor=#fff2cc;strokeColor=#d6b656;" parent="1" vertex="1">
          <mxGeometry x="675" y="1754.5" width="80" height="62" as="geometry" />
        </mxCell>
        <mxCell id="OEsS5qi2aNCGJDPdCa3z-96" value="20" style="rounded=0;whiteSpace=wrap;html=1;fillColor=#fff2cc;strokeColor=#d6b656;" parent="1" vertex="1">
          <mxGeometry x="755" y="1754.5" width="80" height="62" as="geometry" />
        </mxCell>
        <mxCell id="OEsS5qi2aNCGJDPdCa3z-97" value="40" style="rounded=0;whiteSpace=wrap;html=1;fillColor=#fff2cc;strokeColor=#d6b656;" parent="1" vertex="1">
          <mxGeometry x="835" y="1754.5" width="80" height="62" as="geometry" />
        </mxCell>
        <mxCell id="OEsS5qi2aNCGJDPdCa3z-100" value="10" style="ellipse;whiteSpace=wrap;html=1;aspect=fixed;fillColor=#ffe6cc;strokeColor=#d79b00;fontSize=15;" parent="1" vertex="1">
          <mxGeometry x="278" y="1847" width="47" height="47" as="geometry" />
        </mxCell>
        <mxCell id="OEsS5qi2aNCGJDPdCa3z-104" value="&lt;font color=&quot;#ff3333&quot;&gt;大根堆&lt;/font&gt;" style="text;html=1;align=center;verticalAlign=middle;resizable=0;points=[];autosize=1;strokeColor=none;fillColor=none;fontSize=15;strokeWidth=7;fontStyle=1" parent="1" vertex="1">
          <mxGeometry x="-71" y="1727" width="63" height="30" as="geometry" />
        </mxCell>
        <mxCell id="OEsS5qi2aNCGJDPdCa3z-105" value="10" style="rounded=0;whiteSpace=wrap;html=1;fillColor=#fff2cc;strokeColor=#d6b656;" parent="1" vertex="1">
          <mxGeometry x="915" y="1754.5" width="80" height="62" as="geometry" />
        </mxCell>
        <mxCell id="OEsS5qi2aNCGJDPdCa3z-106" style="rounded=0;orthogonalLoop=1;jettySize=auto;html=1;exitX=0;exitY=1;exitDx=0;exitDy=0;entryX=1;entryY=0;entryDx=0;entryDy=0;fillColor=#ffe6cc;strokeColor=#d79b00;fontSize=15;" parent="1" source="OEsS5qi2aNCGJDPdCa3z-108" target="OEsS5qi2aNCGJDPdCa3z-114" edge="1">
          <mxGeometry relative="1" as="geometry" />
        </mxCell>
        <mxCell id="OEsS5qi2aNCGJDPdCa3z-107" style="edgeStyle=none;rounded=0;orthogonalLoop=1;jettySize=auto;html=1;exitX=1;exitY=1;exitDx=0;exitDy=0;fillColor=#ffe6cc;strokeColor=#d79b00;fontSize=15;" parent="1" source="OEsS5qi2aNCGJDPdCa3z-108" target="OEsS5qi2aNCGJDPdCa3z-111" edge="1">
          <mxGeometry relative="1" as="geometry" />
        </mxCell>
        <mxCell id="OEsS5qi2aNCGJDPdCa3z-108" value="10" style="ellipse;whiteSpace=wrap;html=1;aspect=fixed;fillColor=#ffe6cc;strokeColor=#d79b00;fontSize=15;" parent="1" vertex="1">
          <mxGeometry x="147" y="1942" width="47" height="47" as="geometry" />
        </mxCell>
        <mxCell id="OEsS5qi2aNCGJDPdCa3z-109" style="edgeStyle=none;rounded=0;orthogonalLoop=1;jettySize=auto;html=1;exitX=0;exitY=1;exitDx=0;exitDy=0;entryX=1;entryY=0;entryDx=0;entryDy=0;fillColor=#ffe6cc;strokeColor=#d79b00;fontSize=15;" parent="1" source="OEsS5qi2aNCGJDPdCa3z-111" target="OEsS5qi2aNCGJDPdCa3z-117" edge="1">
          <mxGeometry relative="1" as="geometry" />
        </mxCell>
        <mxCell id="OEsS5qi2aNCGJDPdCa3z-110" style="edgeStyle=none;rounded=0;orthogonalLoop=1;jettySize=auto;html=1;exitX=1;exitY=1;exitDx=0;exitDy=0;entryX=0;entryY=0;entryDx=0;entryDy=0;fontSize=15;fillColor=#ffe6cc;strokeColor=#d79b00;" parent="1" source="OEsS5qi2aNCGJDPdCa3z-111" target="OEsS5qi2aNCGJDPdCa3z-124" edge="1">
          <mxGeometry relative="1" as="geometry" />
        </mxCell>
        <mxCell id="OEsS5qi2aNCGJDPdCa3z-111" value="40" style="ellipse;whiteSpace=wrap;html=1;aspect=fixed;fillColor=#ffe6cc;strokeColor=#d79b00;fontSize=15;" parent="1" vertex="1">
          <mxGeometry x="222" y="2015" width="47" height="47" as="geometry" />
        </mxCell>
        <mxCell id="OEsS5qi2aNCGJDPdCa3z-112" style="edgeStyle=none;rounded=0;orthogonalLoop=1;jettySize=auto;html=1;exitX=0;exitY=1;exitDx=0;exitDy=0;entryX=1;entryY=0;entryDx=0;entryDy=0;fillColor=#ffe6cc;strokeColor=#d79b00;fontSize=15;" parent="1" source="OEsS5qi2aNCGJDPdCa3z-114" target="OEsS5qi2aNCGJDPdCa3z-115" edge="1">
          <mxGeometry relative="1" as="geometry" />
        </mxCell>
        <mxCell id="OEsS5qi2aNCGJDPdCa3z-113" style="edgeStyle=none;rounded=0;orthogonalLoop=1;jettySize=auto;html=1;exitX=1;exitY=1;exitDx=0;exitDy=0;entryX=0;entryY=0;entryDx=0;entryDy=0;fillColor=#ffe6cc;strokeColor=#d79b00;fontSize=15;" parent="1" source="OEsS5qi2aNCGJDPdCa3z-114" target="OEsS5qi2aNCGJDPdCa3z-116" edge="1">
          <mxGeometry relative="1" as="geometry" />
        </mxCell>
        <mxCell id="OEsS5qi2aNCGJDPdCa3z-114" value="30" style="ellipse;whiteSpace=wrap;html=1;aspect=fixed;fillColor=#ffe6cc;strokeColor=#d79b00;fontSize=15;" parent="1" vertex="1">
          <mxGeometry x="70" y="2015" width="47" height="47" as="geometry" />
        </mxCell>
        <mxCell id="OEsS5qi2aNCGJDPdCa3z-115" value="62" style="ellipse;whiteSpace=wrap;html=1;aspect=fixed;fillColor=#ffe6cc;strokeColor=#d79b00;fontSize=15;" parent="1" vertex="1">
          <mxGeometry x="12" y="2100" width="47" height="47" as="geometry" />
        </mxCell>
        <mxCell id="OEsS5qi2aNCGJDPdCa3z-116" value="39" style="ellipse;whiteSpace=wrap;html=1;aspect=fixed;fillColor=#ffe6cc;strokeColor=#d79b00;fontSize=15;" parent="1" vertex="1">
          <mxGeometry x="114" y="2102" width="47" height="47" as="geometry" />
        </mxCell>
        <mxCell id="OEsS5qi2aNCGJDPdCa3z-117" value="54" style="ellipse;whiteSpace=wrap;html=1;aspect=fixed;fillColor=#ffe6cc;strokeColor=#d79b00;fontSize=15;" parent="1" vertex="1">
          <mxGeometry x="181" y="2102" width="47" height="47" as="geometry" />
        </mxCell>
        <mxCell id="OEsS5qi2aNCGJDPdCa3z-118" value="10" style="rounded=0;whiteSpace=wrap;html=1;fillColor=#fff2cc;strokeColor=#d6b656;" parent="1" vertex="1">
          <mxGeometry x="435" y="2007.5" width="80" height="62" as="geometry" />
        </mxCell>
        <mxCell id="OEsS5qi2aNCGJDPdCa3z-119" value="30" style="rounded=0;whiteSpace=wrap;html=1;fillColor=#fff2cc;strokeColor=#d6b656;" parent="1" vertex="1">
          <mxGeometry x="515" y="2007.5" width="80" height="62" as="geometry" />
        </mxCell>
        <mxCell id="OEsS5qi2aNCGJDPdCa3z-120" value="40" style="rounded=0;whiteSpace=wrap;html=1;fillColor=#fff2cc;strokeColor=#d6b656;" parent="1" vertex="1">
          <mxGeometry x="595" y="2007.5" width="80" height="62" as="geometry" />
        </mxCell>
        <mxCell id="OEsS5qi2aNCGJDPdCa3z-121" value="62" style="rounded=0;whiteSpace=wrap;html=1;fillColor=#fff2cc;strokeColor=#d6b656;" parent="1" vertex="1">
          <mxGeometry x="675" y="2007.5" width="80" height="62" as="geometry" />
        </mxCell>
        <mxCell id="OEsS5qi2aNCGJDPdCa3z-122" value="39" style="rounded=0;whiteSpace=wrap;html=1;fillColor=#fff2cc;strokeColor=#d6b656;" parent="1" vertex="1">
          <mxGeometry x="755" y="2007.5" width="80" height="62" as="geometry" />
        </mxCell>
        <mxCell id="OEsS5qi2aNCGJDPdCa3z-123" value="54" style="rounded=0;whiteSpace=wrap;html=1;fillColor=#fff2cc;strokeColor=#d6b656;" parent="1" vertex="1">
          <mxGeometry x="835" y="2007.5" width="80" height="62" as="geometry" />
        </mxCell>
        <mxCell id="OEsS5qi2aNCGJDPdCa3z-124" value="145" style="ellipse;whiteSpace=wrap;html=1;aspect=fixed;fillColor=#ffe6cc;strokeColor=#d79b00;fontSize=15;" parent="1" vertex="1">
          <mxGeometry x="278" y="2100" width="47" height="47" as="geometry" />
        </mxCell>
        <mxCell id="OEsS5qi2aNCGJDPdCa3z-125" value="&lt;font color=&quot;#ff3333&quot;&gt;小根堆&lt;/font&gt;" style="text;html=1;align=center;verticalAlign=middle;resizable=0;points=[];autosize=1;strokeColor=none;fillColor=none;fontSize=15;strokeWidth=7;fontStyle=1" parent="1" vertex="1">
          <mxGeometry x="-71" y="1980" width="63" height="30" as="geometry" />
        </mxCell>
        <mxCell id="OEsS5qi2aNCGJDPdCa3z-126" value="148" style="rounded=0;whiteSpace=wrap;html=1;fillColor=#fff2cc;strokeColor=#d6b656;" parent="1" vertex="1">
          <mxGeometry x="915" y="2007.5" width="80" height="62" as="geometry" />
        </mxCell>
        <mxCell id="WlHi6fPlka2EF-HQjQjL-21" value="70" style="rounded=0;whiteSpace=wrap;html=1;fillColor=#fff2cc;strokeColor=#d6b656;" vertex="1" parent="1">
          <mxGeometry x="440" y="440.5000000000001" width="80" height="62" as="geometry" />
        </mxCell>
        <mxCell id="WlHi6fPlka2EF-HQjQjL-22" value="50" style="rounded=0;whiteSpace=wrap;html=1;fillColor=#fff2cc;strokeColor=#d6b656;" vertex="1" parent="1">
          <mxGeometry x="520" y="440.5000000000001" width="80" height="62" as="geometry" />
        </mxCell>
        <mxCell id="WlHi6fPlka2EF-HQjQjL-23" value="100" style="rounded=0;whiteSpace=wrap;html=1;fillColor=#fff2cc;strokeColor=#d6b656;fontColor=#FF0000;" vertex="1" parent="1">
          <mxGeometry x="600" y="440.5000000000001" width="80" height="62" as="geometry" />
        </mxCell>
        <mxCell id="WlHi6fPlka2EF-HQjQjL-24" value="30" style="rounded=0;whiteSpace=wrap;html=1;fillColor=#fff2cc;strokeColor=#d6b656;" vertex="1" parent="1">
          <mxGeometry x="680" y="440.5000000000001" width="80" height="62" as="geometry" />
        </mxCell>
        <mxCell id="WlHi6fPlka2EF-HQjQjL-25" value="20" style="rounded=0;whiteSpace=wrap;html=1;fillColor=#fff2cc;strokeColor=#d6b656;" vertex="1" parent="1">
          <mxGeometry x="760" y="440.5000000000001" width="80" height="62" as="geometry" />
        </mxCell>
        <mxCell id="WlHi6fPlka2EF-HQjQjL-26" value="40" style="rounded=0;whiteSpace=wrap;html=1;fillColor=#fff2cc;strokeColor=#d6b656;" vertex="1" parent="1">
          <mxGeometry x="840" y="440.5000000000001" width="80" height="62" as="geometry" />
        </mxCell>
        <mxCell id="WlHi6fPlka2EF-HQjQjL-27" value="" style="endArrow=classic;html=1;rounded=0;" edge="1" parent="1">
          <mxGeometry width="50" height="50" relative="1" as="geometry">
            <mxPoint x="602" y="572" as="sourcePoint" />
            <mxPoint x="602" y="512" as="targetPoint" />
          </mxGeometry>
        </mxCell>
        <mxCell id="WlHi6fPlka2EF-HQjQjL-28" value="a" style="text;html=1;align=center;verticalAlign=middle;resizable=0;points=[];autosize=1;strokeColor=none;fillColor=none;" vertex="1" parent="1">
          <mxGeometry x="600" y="528" width="25" height="26" as="geometry" />
        </mxCell>
        <mxCell id="WlHi6fPlka2EF-HQjQjL-29" value="65" style="rounded=0;whiteSpace=wrap;html=1;fillColor=#fff2cc;strokeColor=#d6b656;fontColor=#00FF00;" vertex="1" parent="1">
          <mxGeometry x="920" y="440.5000000000001" width="80" height="62" as="geometry" />
        </mxCell>
        <mxCell id="WlHi6fPlka2EF-HQjQjL-30" value="100" style="rounded=0;whiteSpace=wrap;html=1;fillColor=#fff2cc;strokeColor=#d6b656;fontColor=#FF3333;" vertex="1" parent="1">
          <mxGeometry x="433" y="790.0000000000001" width="80" height="62" as="geometry" />
        </mxCell>
        <mxCell id="WlHi6fPlka2EF-HQjQjL-31" value="50" style="rounded=0;whiteSpace=wrap;html=1;fillColor=#fff2cc;strokeColor=#d6b656;" vertex="1" parent="1">
          <mxGeometry x="513" y="790.0000000000001" width="80" height="62" as="geometry" />
        </mxCell>
        <mxCell id="WlHi6fPlka2EF-HQjQjL-32" value="70" style="rounded=0;whiteSpace=wrap;html=1;fillColor=#fff2cc;strokeColor=#d6b656;fontColor=#0000FF;" vertex="1" parent="1">
          <mxGeometry x="593" y="790.0000000000001" width="80" height="62" as="geometry" />
        </mxCell>
        <mxCell id="WlHi6fPlka2EF-HQjQjL-33" value="30" style="rounded=0;whiteSpace=wrap;html=1;fillColor=#fff2cc;strokeColor=#d6b656;" vertex="1" parent="1">
          <mxGeometry x="673" y="790.0000000000001" width="80" height="62" as="geometry" />
        </mxCell>
        <mxCell id="WlHi6fPlka2EF-HQjQjL-34" value="20" style="rounded=0;whiteSpace=wrap;html=1;fillColor=#fff2cc;strokeColor=#d6b656;" vertex="1" parent="1">
          <mxGeometry x="753" y="790.0000000000001" width="80" height="62" as="geometry" />
        </mxCell>
        <mxCell id="WlHi6fPlka2EF-HQjQjL-35" value="40" style="rounded=0;whiteSpace=wrap;html=1;fillColor=#fff2cc;strokeColor=#d6b656;" vertex="1" parent="1">
          <mxGeometry x="833" y="790.0000000000001" width="80" height="62" as="geometry" />
        </mxCell>
        <mxCell id="WlHi6fPlka2EF-HQjQjL-36" value="" style="endArrow=classic;html=1;rounded=0;" edge="1" parent="1">
          <mxGeometry width="50" height="50" relative="1" as="geometry">
            <mxPoint x="434.5" y="926" as="sourcePoint" />
            <mxPoint x="434.5" y="866" as="targetPoint" />
          </mxGeometry>
        </mxCell>
        <mxCell id="WlHi6fPlka2EF-HQjQjL-37" value="a" style="text;html=1;align=center;verticalAlign=middle;resizable=0;points=[];autosize=1;strokeColor=none;fillColor=none;" vertex="1" parent="1">
          <mxGeometry x="432.5" y="882" width="25" height="26" as="geometry" />
        </mxCell>
        <mxCell id="WlHi6fPlka2EF-HQjQjL-38" value="65" style="rounded=0;whiteSpace=wrap;html=1;fillColor=#fff2cc;strokeColor=#d6b656;fontColor=#00FF00;" vertex="1" parent="1">
          <mxGeometry x="913" y="790.0000000000001" width="80" height="62" as="geometry" />
        </mxCell>
        <mxCell id="WlHi6fPlka2EF-HQjQjL-40" value="向上调整建堆：依次插入堆并向上调整" style="text;html=1;align=center;verticalAlign=middle;resizable=0;points=[];autosize=1;strokeColor=#d79b00;fillColor=#ffe6cc;" vertex="1" parent="1">
          <mxGeometry x="1262" y="2563" width="222" height="26" as="geometry" />
        </mxCell>
        <mxCell id="WlHi6fPlka2EF-HQjQjL-41" value="向下调整建堆：从倒数第一个有子节点的节点开始" style="text;html=1;align=center;verticalAlign=middle;resizable=0;points=[];autosize=1;strokeColor=#d79b00;fillColor=#ffe6cc;" vertex="1" parent="1">
          <mxGeometry x="1202" y="2726" width="282" height="26" as="geometry" />
        </mxCell>
        <mxCell id="WlHi6fPlka2EF-HQjQjL-43" value="27" style="whiteSpace=wrap;html=1;" vertex="1" parent="1">
          <mxGeometry x="1637.5" y="2665" width="68" height="40" as="geometry" />
        </mxCell>
        <mxCell id="WlHi6fPlka2EF-HQjQjL-44" value="15" style="whiteSpace=wrap;html=1;" vertex="1" parent="1">
          <mxGeometry x="1597" y="2725" width="68" height="40" as="geometry" />
        </mxCell>
        <mxCell id="WlHi6fPlka2EF-HQjQjL-45" value="19" style="whiteSpace=wrap;html=1;" vertex="1" parent="1">
          <mxGeometry x="1665" y="2725" width="68" height="40" as="geometry" />
        </mxCell>
        <mxCell id="WlHi6fPlka2EF-HQjQjL-46" value="18" style="whiteSpace=wrap;html=1;" vertex="1" parent="1">
          <mxGeometry x="1529" y="2794" width="68" height="40" as="geometry" />
        </mxCell>
        <mxCell id="WlHi6fPlka2EF-HQjQjL-47" value="28" style="whiteSpace=wrap;html=1;" vertex="1" parent="1">
          <mxGeometry x="1597" y="2794" width="68" height="40" as="geometry" />
        </mxCell>
        <mxCell id="WlHi6fPlka2EF-HQjQjL-48" value="34" style="whiteSpace=wrap;html=1;" vertex="1" parent="1">
          <mxGeometry x="1665" y="2794" width="68" height="40" as="geometry" />
        </mxCell>
        <mxCell id="WlHi6fPlka2EF-HQjQjL-49" value="" style="endArrow=classic;html=1;rounded=0;" edge="1" parent="1">
          <mxGeometry width="50" height="50" relative="1" as="geometry">
            <mxPoint x="1665" y="2788" as="sourcePoint" />
            <mxPoint x="1664.5" y="2768" as="targetPoint" />
          </mxGeometry>
        </mxCell>
        <mxCell id="WlHi6fPlka2EF-HQjQjL-50" value="a" style="text;html=1;align=center;verticalAlign=middle;resizable=0;points=[];autosize=1;strokeColor=none;fillColor=none;" vertex="1" parent="1">
          <mxGeometry x="1659" y="2771" width="25" height="26" as="geometry" />
        </mxCell>
        <mxCell id="WlHi6fPlka2EF-HQjQjL-51" value="27" style="whiteSpace=wrap;html=1;" vertex="1" parent="1">
          <mxGeometry x="1936.5" y="2663" width="68" height="40" as="geometry" />
        </mxCell>
        <mxCell id="WlHi6fPlka2EF-HQjQjL-52" value="15" style="whiteSpace=wrap;html=1;" vertex="1" parent="1">
          <mxGeometry x="1896" y="2723" width="68" height="40" as="geometry" />
        </mxCell>
        <mxCell id="WlHi6fPlka2EF-HQjQjL-53" value="34" style="whiteSpace=wrap;html=1;fillColor=#dae8fc;strokeColor=#6c8ebf;" vertex="1" parent="1">
          <mxGeometry x="1964" y="2723" width="68" height="40" as="geometry" />
        </mxCell>
        <mxCell id="WlHi6fPlka2EF-HQjQjL-54" value="18" style="whiteSpace=wrap;html=1;" vertex="1" parent="1">
          <mxGeometry x="1828" y="2792" width="68" height="40" as="geometry" />
        </mxCell>
        <mxCell id="WlHi6fPlka2EF-HQjQjL-55" value="28" style="whiteSpace=wrap;html=1;" vertex="1" parent="1">
          <mxGeometry x="1896" y="2792" width="68" height="40" as="geometry" />
        </mxCell>
        <mxCell id="WlHi6fPlka2EF-HQjQjL-56" value="19" style="whiteSpace=wrap;html=1;fillColor=#fff2cc;strokeColor=#d6b656;" vertex="1" parent="1">
          <mxGeometry x="1964" y="2792" width="68" height="40" as="geometry" />
        </mxCell>
        <mxCell id="WlHi6fPlka2EF-HQjQjL-57" value="" style="endArrow=classic;html=1;rounded=0;" edge="1" parent="1">
          <mxGeometry width="50" height="50" relative="1" as="geometry">
            <mxPoint x="1896" y="2785" as="sourcePoint" />
            <mxPoint x="1895.5" y="2765" as="targetPoint" />
          </mxGeometry>
        </mxCell>
        <mxCell id="WlHi6fPlka2EF-HQjQjL-58" value="a" style="text;html=1;align=center;verticalAlign=middle;resizable=0;points=[];autosize=1;strokeColor=none;fillColor=none;" vertex="1" parent="1">
          <mxGeometry x="1890" y="2768" width="25" height="26" as="geometry" />
        </mxCell>
        <mxCell id="WlHi6fPlka2EF-HQjQjL-59" value="27" style="whiteSpace=wrap;html=1;" vertex="1" parent="1">
          <mxGeometry x="2190" y="2665" width="68" height="40" as="geometry" />
        </mxCell>
        <mxCell id="WlHi6fPlka2EF-HQjQjL-60" value="28" style="whiteSpace=wrap;html=1;fillColor=#dae8fc;strokeColor=#6c8ebf;" vertex="1" parent="1">
          <mxGeometry x="2149.5" y="2725" width="68" height="40" as="geometry" />
        </mxCell>
        <mxCell id="WlHi6fPlka2EF-HQjQjL-61" value="34" style="whiteSpace=wrap;html=1;" vertex="1" parent="1">
          <mxGeometry x="2217.5" y="2725" width="68" height="40" as="geometry" />
        </mxCell>
        <mxCell id="WlHi6fPlka2EF-HQjQjL-62" value="18" style="whiteSpace=wrap;html=1;" vertex="1" parent="1">
          <mxGeometry x="2081.5" y="2794" width="68" height="40" as="geometry" />
        </mxCell>
        <mxCell id="WlHi6fPlka2EF-HQjQjL-63" value="15" style="whiteSpace=wrap;html=1;fillColor=#fff2cc;strokeColor=#d6b656;" vertex="1" parent="1">
          <mxGeometry x="2149.5" y="2794" width="68" height="40" as="geometry" />
        </mxCell>
        <mxCell id="WlHi6fPlka2EF-HQjQjL-64" value="19" style="whiteSpace=wrap;html=1;" vertex="1" parent="1">
          <mxGeometry x="2217.5" y="2794" width="68" height="40" as="geometry" />
        </mxCell>
        <mxCell id="WlHi6fPlka2EF-HQjQjL-65" value="" style="endArrow=classic;html=1;rounded=0;" edge="1" parent="1">
          <mxGeometry width="50" height="50" relative="1" as="geometry">
            <mxPoint x="2190.5" y="2729" as="sourcePoint" />
            <mxPoint x="2190" y="2709" as="targetPoint" />
          </mxGeometry>
        </mxCell>
        <mxCell id="WlHi6fPlka2EF-HQjQjL-66" value="a" style="text;html=1;align=center;verticalAlign=middle;resizable=0;points=[];autosize=1;strokeColor=none;fillColor=none;" vertex="1" parent="1">
          <mxGeometry x="2184.5" y="2712" width="25" height="26" as="geometry" />
        </mxCell>
        <mxCell id="WlHi6fPlka2EF-HQjQjL-76" value="34" style="whiteSpace=wrap;html=1;fillColor=#dae8fc;strokeColor=#6c8ebf;" vertex="1" parent="1">
          <mxGeometry x="2454.5" y="2665" width="68" height="40" as="geometry" />
        </mxCell>
        <mxCell id="WlHi6fPlka2EF-HQjQjL-77" value="28" style="whiteSpace=wrap;html=1;" vertex="1" parent="1">
          <mxGeometry x="2414" y="2725" width="68" height="40" as="geometry" />
        </mxCell>
        <mxCell id="WlHi6fPlka2EF-HQjQjL-78" value="27" style="whiteSpace=wrap;html=1;fillColor=#fff2cc;strokeColor=#d6b656;" vertex="1" parent="1">
          <mxGeometry x="2482" y="2725" width="68" height="40" as="geometry" />
        </mxCell>
        <mxCell id="WlHi6fPlka2EF-HQjQjL-79" value="18" style="whiteSpace=wrap;html=1;" vertex="1" parent="1">
          <mxGeometry x="2346" y="2794" width="68" height="40" as="geometry" />
        </mxCell>
        <mxCell id="WlHi6fPlka2EF-HQjQjL-80" value="15" style="whiteSpace=wrap;html=1;" vertex="1" parent="1">
          <mxGeometry x="2414" y="2794" width="68" height="40" as="geometry" />
        </mxCell>
        <mxCell id="WlHi6fPlka2EF-HQjQjL-81" value="19" style="whiteSpace=wrap;html=1;" vertex="1" parent="1">
          <mxGeometry x="2482" y="2794" width="68" height="40" as="geometry" />
        </mxCell>
      </root>
    </mxGraphModel>
  </diagram>
</mxfile>
